<?xml version="1.0" encoding="utf-8"?>
<!-- Generator: Adobe Illustrator 23.0.3, SVG Export Plug-In . SVG Version: 6.00 Build 0)  -->
<svg version="1.1" id="Calque_1" xmlns="http://www.w3.org/2000/svg" xmlns:xlink="http://www.w3.org/1999/xlink" x="0px" y="0px"
	 viewBox="0 0 500 500" style="enable-background:new 0 0 500 500;" xml:space="preserve">
<style type="text/css">
	.st0{fill:#F8C09D;}
	.st1{fill:#E8A78B;}
	.st2{fill:#914A43;}
	.st3{fill:#311A12;stroke:#311A12;stroke-width:4;stroke-miterlimit:10;}
	.st4{fill:#311A12;stroke:#311A12;stroke-width:5;stroke-miterlimit:10;}
	.st5{fill:#4C2723;}
	.st6{fill:#EF937E;}
	.st7{fill:#66342D;}
	.st8{fill:#512A25;}
	.st9{fill:#47241B;}
	.st10{fill:#F9DACA;}
	.st11{fill:none;stroke:#874640;stroke-width:4;stroke-linecap:round;stroke-miterlimit:10;}
	.st12{fill:#6D352E;}
	.st13{fill:#A55350;}
	.st14{fill:none;stroke:#7C4039;stroke-width:4;stroke-linecap:round;stroke-miterlimit:10;}
	.st15{fill:#994A42;}
	.st16{fill:#DC1C4B;}
	.st17{fill:#EA1B7E;}
</style>
<path class="st0" d="M209.68,114.61v9.37c0,1.43-1.16,2.59-2.59,2.59h-6.46c-3.04,0-5.5-2.46-5.5-5.5v-3.56c0-3.04,2.46-5.5,5.5-5.5
	h6.46C208.52,112.01,209.68,113.17,209.68,114.61z"/>
<path class="st0" d="M293.23,114.61v9.37c0,1.43,1.16,2.59,2.59,2.59h6.46c3.04,0,5.5-2.46,5.5-5.5v-3.56c0-3.04-2.46-5.5-5.5-5.5
	h-6.46C294.39,112.01,293.23,113.17,293.23,114.61z"/>
<g>
	<path class="st1" d="M197.73,121.79l-0.31-0.31c-0.27-0.27-0.27-0.7,0-0.96l3.72-3.72c0.27-0.27,0.7-0.27,0.96,0l0.31,0.31
		c0.27,0.27,0.27,0.7,0,0.96l-3.72,3.72C198.43,122.05,198,122.05,197.73,121.79z"/>
	<path class="st1" d="M202.41,121.48l-0.31,0.31c-0.27,0.27-0.7,0.27-0.96,0l-3.72-3.72c-0.27-0.27-0.27-0.7,0-0.96l0.31-0.31
		c0.27-0.27,0.7-0.27,0.96,0l3.72,3.72C202.68,120.78,202.68,121.21,202.41,121.48z"/>
</g>
<g>
	<path class="st1" d="M299.48,121.79l-0.31-0.31c-0.27-0.27-0.27-0.7,0-0.96l3.72-3.72c0.27-0.27,0.7-0.27,0.96,0l0.31,0.31
		c0.27,0.27,0.27,0.7,0,0.96l-3.72,3.72C300.18,122.05,299.75,122.05,299.48,121.79z"/>
	<path class="st1" d="M304.16,121.48l-0.31,0.31c-0.27,0.27-0.7,0.27-0.96,0l-3.72-3.72c-0.27-0.27-0.27-0.7,0-0.96l0.31-0.31
		c0.27-0.27,0.7-0.27,0.96,0l3.72,3.72C304.43,120.78,304.43,121.21,304.16,121.48z"/>
</g>
<path class="st2" d="M149.64,484h-8.24c-14.08,0-25.5-11.42-25.5-25.5V257.51h59.24V458.5C175.14,472.58,163.72,484,149.64,484z"/>
<circle class="st3" cx="162.36" cy="257.51" r="46.46"/>
<path class="st2" d="M353.96,484h8.24c14.08,0,25.5-11.42,25.5-25.5V257.51h-59.24V458.5C328.46,472.58,339.87,484,353.96,484z"/>
<circle class="st4" cx="341.23" cy="257.51" r="46.46"/>
<circle class="st5" cx="251.8" cy="288.29" r="92.92"/>
<path class="st6" d="M268.76,230.21h-33.93c-10.2,0-18.46-8.27-18.46-18.46v-44.84h70.85v44.84
	C287.22,221.95,278.96,230.21,268.76,230.21z"/>
<path class="st0" d="M258.38,188.98h-13.16c-22.5,0-40.74-18.24-40.74-40.74V91.5c0-22.5,18.24-40.74,40.74-40.74h13.16
	c22.5,0,40.74,18.24,40.74,40.74v56.74C299.11,170.74,280.88,188.98,258.38,188.98z"/>
<path class="st7" d="M340.16,298.74H163.44c-15.19,0-27.5-12.31-27.5-27.5v-20.5c0-15.19,12.31-27.5,27.5-27.5h176.72
	c15.19,0,27.5,12.31,27.5,27.5v20.5C367.66,286.43,355.34,298.74,340.16,298.74z"/>
<path class="st8" d="M335.71,284.8H167.88c-17.25,0-31.3-13.68-31.91-30.78c-0.01,0.39-0.03,0.77-0.03,1.16v11.61
	c0,17.64,14.3,31.94,31.94,31.94h167.84c17.64,0,31.94-14.3,31.94-31.94v-11.61c0-0.39-0.02-0.78-0.03-1.16
	C367.01,271.13,352.97,284.8,335.71,284.8z"/>
<path class="st9" d="M286.14,438.12h-68.69c-8.94,0-16.18-7.24-16.18-16.18V352.7c0-24.02,19.48-43.5,43.5-43.5h14.05
	c24.02,0,43.5,19.48,43.5,43.5v69.24C302.32,430.88,295.08,438.12,286.14,438.12z"/>
<path class="st1" d="M236.37,111.38l-18.72-4.27c-2.96-0.68-4.81-3.62-4.14-6.59l0.4-1.73c0.68-2.96,3.62-4.81,6.59-4.14l18.72,4.27
	c2.96,0.68,4.81,3.62,4.14,6.59l-0.4,1.73C242.28,110.2,239.34,112.06,236.37,111.38z"/>
<path class="st1" d="M285.94,107.11l-18.72,4.27c-2.96,0.68-5.91-1.18-6.59-4.14l-0.4-1.73c-0.68-2.96,1.18-5.91,4.14-6.59
	l18.72-4.27c2.96-0.68,5.91,1.18,6.59,4.14l0.4,1.73C290.75,103.48,288.9,106.43,285.94,107.11z"/>
<g>
	<path d="M233.62,124.52h-0.81c-1.38,0-2.5-1.12-2.5-2.5v-11.26c0-1.38,1.12-2.5,2.5-2.5h0.81c1.38,0,2.5,1.12,2.5,2.5v11.26
		C236.12,123.4,235,124.52,233.62,124.52z"/>
	<path d="M270.78,124.52h-0.81c-1.38,0-2.5-1.12-2.5-2.5v-11.26c0-1.38,1.12-2.5,2.5-2.5h0.81c1.38,0,2.5,1.12,2.5,2.5v11.26
		C273.28,123.4,272.17,124.52,270.78,124.52z"/>
</g>
<path class="st0" d="M252.93,147.75h-2.26c-3.87,0-7-3.13-7-7v-9.26h16.26v9.26C259.93,144.61,256.79,147.75,252.93,147.75z"/>
<ellipse transform="matrix(0.7071 -0.7071 0.7071 0.7071 30.9484 217.1532)" class="st10" cx="277.6" cy="71.22" rx="5.26" ry="10.18"/>
<path class="st11" d="M325.21,279c2.07,0.4,14.7,2.61,25.55-5.81c6.86-5.32,9.52-12.18,10.45-15.1"/>
<path class="st12" d="M288.02,420.7h-1.13c-1.93,0-3.5-1.57-3.5-3.5v-46.43c0-1.93,1.57-3.5,3.5-3.5h1.13c1.93,0,3.5,1.57,3.5,3.5
	v46.43C291.52,419.13,289.96,420.7,288.02,420.7z"/>
<path class="st13" d="M377.96,432.31h-0.97c-1.66,0-3-1.34-3-3V320.33c0-1.66,1.34-3,3-3h0.97c1.66,0,3,1.34,3,3v108.99
	C380.96,430.97,379.62,432.31,377.96,432.31z"/>
<path class="st13" d="M127.08,381.21h-0.97c-1.66,0-3-1.34-3-3v-62.53c0-1.66,1.34-3,3-3h0.97c1.66,0,3,1.34,3,3v62.53
	C130.08,379.86,128.73,381.21,127.08,381.21z"/>
<path class="st14" d="M167.24,305.71c1.63,7.03,5.06,17.82,12.78,29.04c5.93,8.63,12.43,14.65,17.42,18.58"/>
<path class="st15" d="M250.87,227.89c23.09-22.44,36.35-43.71,40.65-54.59c3.59-9.08,5.81-18.58,5.81-18.58
	c1.18-5.05,1.88-9.42,2.32-12.78c0-3.87,0-7.74,0-11.61c-2.52,0-5.03,0-7.55,0h-80.14c-2.52,0-5.03,0-7.55,0c0,3.87,0,7.74,0,11.61
	c0,0,0.6,10.22,3.48,20.91C211.02,174.43,224.91,200.07,250.87,227.89z"/>
<path class="st16" d="M263.65,74.57c-2.34,0.97-6.4,2.32-11.61,2.32c-2.53,0-6.8-0.32-11.61-2.32c0-19.36,0-38.72,0-58.07h23.23
	V74.57z"/>
<path class="st16" d="M236.63,110.25l-18.72-4.27c-2.96-0.68-4.81-3.62-4.14-6.59l0.4-1.73c0.68-2.96,3.62-4.81,6.59-4.14
	l18.72,4.27c2.96,0.68,4.81,3.62,4.14,6.59l-0.4,1.73C242.54,109.07,239.59,110.92,236.63,110.25z"/>
<path class="st16" d="M285.68,105.98l-18.72,4.27c-2.96,0.68-5.91-1.18-6.59-4.14l-0.4-1.73c-0.68-2.96,1.18-5.91,4.14-6.59
	l18.72-4.27c2.96-0.68,5.91,1.18,6.59,4.14l0.4,1.73C290.49,102.35,288.64,105.3,285.68,105.98z"/>
<path class="st17" d="M282.75,98.32l-15.62,3.57c-0.54,0.12-1.07-0.21-1.2-0.75l-0.07-0.31c-0.12-0.54,0.21-1.07,0.75-1.2
	l15.62-3.57c0.54-0.12,1.07,0.21,1.2,0.75l0.07,0.31C283.62,97.66,283.29,98.19,282.75,98.32z"/>
<path class="st17" d="M235.77,101.88l-15.62-3.57c-0.54-0.12-0.88-0.66-0.75-1.2l0.07-0.31c0.12-0.54,0.66-0.88,1.2-0.75l15.62,3.57
	c0.54,0.12,0.88,0.66,0.75,1.2l-0.07,0.31C236.85,101.67,236.31,102,235.77,101.88z"/>
<path class="st17" d="M259.25,69L259.25,69c-0.83,0-1.5-0.67-1.5-1.5v-29c0-0.83,0.67-1.5,1.5-1.5l0,0c0.83,0,1.5,0.67,1.5,1.5v29
	C260.75,68.33,260.08,69,259.25,69z"/>
<circle class="st17" cx="259.25" cy="32" r="2"/>
</svg>
