<?xml version="1.0" encoding="utf-8"?>
<!-- Generator: Adobe Illustrator 23.0.3, SVG Export Plug-In . SVG Version: 6.00 Build 0)  -->
<svg version="1.1" id="Calque_1" xmlns="http://www.w3.org/2000/svg" xmlns:xlink="http://www.w3.org/1999/xlink" x="0px" y="0px"
	 viewBox="0 0 500 500" style="enable-background:new 0 0 500 500;" xml:space="preserve">
<style type="text/css">
	.st0{fill:#50B86B;}
	.st1{fill:#63DB7F;}
	.st2{fill:#8FC23F;}
	.st3{fill:#7AAF1E;}
	.st4{fill:#C9DB53;}
	.st5{opacity:0.8;fill:#B7EF54;}
	.st6{fill:#FFFFFF;}
	.st7{fill:none;stroke:#50B86B;stroke-width:2;stroke-linecap:round;stroke-miterlimit:10;}
	.st8{fill:#12421D;}
	.st9{fill:#FFFFFF;stroke:#50B86B;stroke-miterlimit:10;}
	.st10{fill:none;stroke:#ABE04F;stroke-width:3;stroke-linecap:round;stroke-miterlimit:10;}
	.st11{fill:#ABE04F;}
	.st12{fill:#9A605C;}
	.st13{fill:#311A12;}
	.st14{fill:#DC1C4B;}
	.st15{fill:#AF706E;}
</style>
<g>
	<circle class="st0" cx="183.5" cy="239" r="58"/>
	<path class="st0" d="M152,423L152,423c-14.36,0-26-11.64-26-26V242h52v155C178,411.36,166.36,423,152,423z"/>
	<circle class="st0" cx="301.5" cy="239" r="58"/>
	<path class="st0" d="M333.5,422L333.5,422c14.36,0,26-11.64,26-26V241h-52v155C307.5,410.36,319.14,422,333.5,422z"/>
	<path class="st1" d="M169.5,367L169.5,367c-2.49,0-4.5-2.01-4.5-4.5v-38c0-2.49,2.01-4.5,4.5-4.5l0,0c2.49,0,4.5,2.01,4.5,4.5v38
		C174,364.99,171.99,367,169.5,367z"/>
	<path class="st1" d="M350.5,268L350.5,268c-2.49,0-4.5-2.01-4.5-4.5v-34c0-2.49,2.01-4.5,4.5-4.5l0,0c2.49,0,4.5,2.01,4.5,4.5v34
		C355,265.99,352.99,268,350.5,268z"/>
</g>
<rect x="178" y="332" class="st2" width="130" height="59"/>
<path class="st2" d="M317.56,329c14.31-17.04,22.94-39.01,22.94-63c0-54.12-43.88-98-98-98s-98,43.88-98,98
	c0,23.99,8.63,45.96,22.94,63H317.56z"/>
<path class="st3" d="M297.51,245.09H187.5c-10.65,0-19.67-7.02-22.68-16.68c-0.69,2.23-1.07,4.6-1.07,7.06v0
	c0,13.11,10.63,23.74,23.74,23.74h110.01c13.11,0,23.74-10.63,23.74-23.74v0c0-2.46-0.37-4.83-1.07-7.06
	C317.18,238.07,308.16,245.09,297.51,245.09z"/>
<g>
	<g>
		<path class="st4" d="M191.5,241h-6c-1.1,0-2-0.9-2-2l0,0c0-1.1,0.9-2,2-2h6c1.1,0,2,0.9,2,2l0,0C193.5,240.1,192.61,241,191.5,241
			z"/>
		<path class="st4" d="M299.5,241h-6c-1.1,0-2-0.9-2-2l0,0c0-1.1,0.9-2,2-2h6c1.1,0,2,0.9,2,2l0,0C301.5,240.1,300.61,241,299.5,241
			z"/>
	</g>
	<path class="st5" d="M212.98,219h-18.8c-2.76,0-5-2.24-5-5l0,0c0-2.76,2.24-5,5-5h18.8c2.76,0,5,2.24,5,5l0,0
		C217.98,216.76,215.74,219,212.98,219z"/>
</g>
<g>
	<path class="st2" d="M320.38,332.62H164.62c-18.57,0-33.62-15.05-33.62-33.62v0c0-18.57,15.05-33.62,33.62-33.62h155.76
		c18.57,0,33.62,15.05,33.62,33.62v0C354,317.57,338.95,332.62,320.38,332.62z"/>
	<path class="st5" d="M318.58,293.42h-34c-2.76,0-5-2.24-5-5v-2.83c0-2.76,2.24-5,5-5h34c2.76,0,5,2.24,5,5v2.83
		C323.58,291.18,321.34,293.42,318.58,293.42z"/>
</g>
<path class="st3" d="M320.38,312.62H164.62c-15.08,0-27.85-9.93-32.11-23.62c-0.98,3.16-1.51,6.52-1.51,10v0
	c0,18.57,15.05,33.62,33.62,33.62h155.76c18.57,0,33.62-15.05,33.62-33.62v0c0-3.48-0.53-6.84-1.51-10
	C348.23,302.68,335.47,312.62,320.38,312.62z"/>
<path class="st2" d="M299,104c-0.38-0.14-0.74-0.07-1,0c-0.85-0.86-1.52-1.03-2-1c-0.42,0.02-0.82,0.2-1,0c-0.19-0.21,0.09-0.56,0-1
	c-0.1-0.47-0.56-0.79-1-1c-0.14,0.05-0.54,0.16-1,0c-0.67-0.23-0.91-0.86-0.95-0.95l-16.7,8.32l7.29,14.63l8.54-4.26
	c5.57-2.78,8.69-8.51,8.41-14.35C299.41,104.24,299.27,104.1,299,104z"/>
<path class="st2" d="M255.17,158.61h-25.33c-15.59,0-28.22-12.64-28.22-28.22v-25.16c0-15.59,12.64-28.22,28.22-28.22h25.33
	c15.59,0,28.22,12.64,28.22,28.22v25.16C283.39,145.97,270.76,158.61,255.17,158.61z"/>
<g>
	<path class="st2" d="M193.82,118.74l8.54,4.26l7.29-14.63l-21.48-10.7c-0.38-0.19-0.84-0.03-1.03,0.35l-0.15,0.3
		C183.23,105.85,186.3,114.99,193.82,118.74z"/>
	<g>
		<path class="st4" d="M288.32,113.79l-0.55-0.55c-0.27-0.27-0.27-0.7,0-0.96l4.58-4.58c0.27-0.27,0.7-0.27,0.96,0l0.55,0.55
			c0.27,0.27,0.27,0.7,0,0.96l-4.58,4.58C289.01,114.05,288.58,114.05,288.32,113.79z"/>
		<path class="st4" d="M293.86,113.24l-0.55,0.55c-0.27,0.27-0.7,0.27-0.96,0l-4.58-4.58c-0.27-0.27-0.27-0.7,0-0.96l0.55-0.55
			c0.27-0.27,0.7-0.27,0.96,0l4.58,4.58C294.13,112.54,294.13,112.97,293.86,113.24z"/>
	</g>
	<g>
		<path class="st4" d="M193.32,113.79l-0.55-0.55c-0.27-0.27-0.27-0.7,0-0.96l4.58-4.58c0.27-0.27,0.7-0.27,0.96,0l0.55,0.55
			c0.27,0.27,0.27,0.7,0,0.96l-4.58,4.58C194.01,114.05,193.58,114.05,193.32,113.79z"/>
		<path class="st4" d="M198.86,113.24l-0.55,0.55c-0.27,0.27-0.7,0.27-0.96,0l-4.58-4.58c-0.27-0.27-0.27-0.7,0-0.96l0.55-0.55
			c0.27-0.27,0.7-0.27,0.96,0l4.58,4.58C199.13,112.54,199.13,112.97,198.86,113.24z"/>
	</g>
</g>
<polygon class="st6" points="218.93,132.54 222.81,151.04 204.85,145.15 "/>
<polygon class="st6" points="201.25,108.15 210.7,150 191.79,150 "/>
<path class="st7" d="M256,111c1.01,0.76,4.27,3,9,3c1.27,0,5.21-0.16,9-3"/>
<path class="st8" d="M266,123c-0.33,0.33-0.67,0.67-1,1c-0.33-0.33-0.67-0.67-1-1c0-7,0-14,0-21c0.33-0.33,0.67-0.67,1-1
	c0.33,0.33,0.67,0.67,1,1C266,109,266,116,266,123z"/>
<path class="st9" d="M229.15,119.71h-12.49c-2.16,0-3.91-1.75-3.91-3.91v-9.92c0-0.88,0.72-1.6,1.6-1.6h7.8c4.75,0,8.6,3.85,8.6,8.6
	v5.23C230.75,119,230.03,119.71,229.15,119.71z"/>
<path d="M222.67,117h-2.34c-0.73,0-1.33-0.59-1.33-1.33v-7.34c0-0.73,0.59-1.33,1.33-1.33h2.34c0.73,0,1.33,0.59,1.33,1.33v7.34
	C224,116.41,223.41,117,222.67,117z"/>
<path class="st6" d="M272.07,137c-0.02,0-0.05,0-0.07,0l-2,1l-0.09-0.05L268,137v2l-1.06-0.53l-2.81,13.4l17.96-5.89L272.07,137z"/>
<path class="st10" d="M259,83c2.07,0.33,6.66,1.34,11,5c3.42,2.89,5.17,6.14,6,8"/>
<path class="st11" d="M195.25,168.5L195.25,168.5c-0.55,0-1-0.45-1-1v-21c0-0.55,0.45-1,1-1l0,0c0.55,0,1,0.45,1,1v21
	C196.25,168.05,195.8,168.5,195.25,168.5z"/>
<circle class="st11" cx="195.25" cy="143" r="1"/>
<polygon class="st6" points="285.25,116 294.7,150 275.8,150 "/>
<rect x="205" y="306" class="st12" width="75" height="85"/>
<path class="st12" d="M354,303H131v3.16c0,2.67,2.17,4.84,4.84,4.84h213.32c2.67,0,4.84-2.17,4.84-4.84V303z"/>
<path class="st0" d="M272,196h-59c-6.08,0-11-4.92-11-11v-8c0-6.08,4.92-11,11-11h59c6.08,0,11,4.92,11,11v8
	C283,191.08,278.08,196,272,196z"/>
<g>
	<path class="st13" d="M228.88,109.18l-13.16-4.79c-1.82-0.66-2.75-2.67-2.09-4.49v0c0.66-1.82,2.67-2.75,4.49-2.09l13.16,4.79
		c1.82,0.66,2.75,2.67,2.09,4.49v0C232.71,108.91,230.7,109.84,228.88,109.18z"/>
</g>
<g>
	<path class="st13" d="M269.27,104.39l-13.16,4.79c-1.82,0.66-3.82-0.28-4.49-2.09v0c-0.66-1.82,0.28-3.82,2.09-4.49l13.16-4.79
		c1.82-0.66,3.82,0.28,4.49,2.09v0C272.03,101.73,271.09,103.73,269.27,104.39z"/>
</g>
<path class="st0" d="M249.75,139h-14c-0.5-0.02-1.83-0.15-2.83-1.17c-0.79-0.8-0.97-1.75-1.17-2.83c-0.27-1.45-0.08-2.6,0-3
	c0.3-1.53,1.01-2.57,1.17-2.83c0.87-1.36,1.74-4.68,1.83-13.17c0.14-4.24,3.38-7.65,7.25-8c4.36-0.4,8.55,3.18,8.75,8
	c0.09,8.49,0.96,11.81,1.83,13.17c0.17,0.26,0.87,1.3,1.17,2.83c0.25,1.25,0.13,2.32,0,3C253.75,137.21,251.96,139,249.75,139z"/>
<rect x="235.75" y="77" class="st14" width="14" height="107"/>
<polygon class="st6" points="244.15,137.78 234.7,154.15 253.6,154.15 "/>
<polygon class="st6" points="255.15,136.36 249.23,154.31 267.73,150.46 "/>
<g>
	<path class="st6" d="M234.94,145.07c-0.38,0.45-0.2,0.89,0.12,1.23c0.12,0.06,0.24,0.13,0.36,0.21L234.94,145.07z"/>
	<path class="st6" d="M235.47,146.67c-0.14-0.1-0.28-0.23-0.41-0.36c-0.2-0.1-0.41-0.15-0.56-0.09C234,146.43,233,147,233,147v-1
		l-1-1c0,0-2,1-2,0l-2,1v-2l-1-1v1h-2c0,0-0.01,0-0.76,0l-5.03,5.64l18.51,3.84L235.47,146.67z"/>
</g>
<path class="st2" d="M268.13,188.35h-51.26c-15.05,0-27.24-12.2-27.24-27.24v-30.58c3.29,3.37,22.77,22.65,53.7,22.3
	c29.89-0.33,48.57-18.75,52.04-22.3c0,10.19,0,20.39,0,30.58C295.37,176.15,283.17,188.35,268.13,188.35z"/>
<path class="st15" d="M229.39,105.48l-8.46-3.08c-0.52-0.19-0.79-0.76-0.6-1.28l0,0c0.19-0.52,0.76-0.79,1.28-0.6l8.46,3.08
	c0.52,0.19,0.79,0.76,0.6,1.28l0,0C230.48,105.4,229.91,105.67,229.39,105.48z"/>
<path class="st15" d="M265.07,102.4l-8.46,3.08c-0.52,0.19-1.09-0.08-1.28-0.6v0c-0.19-0.52,0.08-1.09,0.6-1.28l8.46-3.08
	c0.52-0.19,1.09,0.08,1.28,0.6v0C265.86,101.64,265.59,102.21,265.07,102.4z"/>
</svg>
