<?xml version="1.0" encoding="utf-8"?>
<!-- Generator: Adobe Illustrator 23.0.3, SVG Export Plug-In . SVG Version: 6.00 Build 0)  -->
<svg version="1.1" id="Calque_1" xmlns="http://www.w3.org/2000/svg" xmlns:xlink="http://www.w3.org/1999/xlink" x="0px" y="0px"
	 viewBox="0 0 500 500" style="enable-background:new 0 0 500 500;" xml:space="preserve">
<style type="text/css">
	.st0{fill:#F5F6E8;}
	.st1{fill:#FED883;}
	.st2{fill:#FEBE40;stroke:#FEBE40;stroke-width:4;stroke-miterlimit:10;}
	.st3{fill:#FEBE40;stroke:#FEBE40;stroke-width:5;stroke-miterlimit:10;}
	.st4{fill:#EAB049;}
	.st5{fill:#EF937E;}
	.st6{fill:#F8C09D;}
	.st7{fill:#F7AF2F;}
	.st8{fill:#D89C23;}
	.st9{fill:#BC882A;}
	.st10{fill:#E8A78B;}
	.st11{fill:#FFFFFF;}
	.st12{fill:#F9DACA;}
	.st13{fill:none;stroke:#FCBC56;stroke-width:4;stroke-linecap:round;stroke-miterlimit:10;}
	.st14{fill:#EFA937;}
	.st15{fill:#FFE5B0;}
	.st16{fill:none;stroke:#FCD392;stroke-width:4;stroke-linecap:round;stroke-miterlimit:10;}
</style>
<path class="st0" d="M305.8,211h-108V109c0-29.82,24.18-54,54-54h0c29.82,0,54,24.18,54,54V211z"/>
<path class="st1" d="M160.3,438.5L160.3,438.5c-14.08,0-25.5-11.42-25.5-25.5V243.5h51V413C185.8,427.08,174.38,438.5,160.3,438.5z"
	/>
<circle class="st2" cx="174.8" cy="243.5" r="40"/>
<path class="st1" d="M343.3,438.5L343.3,438.5c14.08,0,25.5-11.42,25.5-25.5V243.5h-51V413C317.8,427.08,329.21,438.5,343.3,438.5z"
	/>
<circle class="st3" cx="328.8" cy="243.5" r="40"/>
<circle class="st4" cx="251.8" cy="270" r="80"/>
<path class="st5" d="M263.84,220h-24.08c-10.2,0-18.46-8.27-18.46-18.46V165.5h61v36.04C282.3,211.73,274.03,220,263.84,220z"/>
<path class="st6" d="M251.8,184.5L251.8,184.5c-22.5,0-40.74-18.24-40.74-40.74v-37.52c0-22.5,18.24-40.74,40.74-40.74h0
	c22.5,0,40.74,18.24,40.74,40.74v37.52C292.54,166.26,274.3,184.5,251.8,184.5z"/>
<path class="st7" d="M324.05,279h-144.5c-15.19,0-27.5-12.31-27.5-27.5v-10c0-15.19,12.31-27.5,27.5-27.5h144.5
	c15.19,0,27.5,12.31,27.5,27.5v10C351.55,266.69,339.23,279,324.05,279z"/>
<path class="st8" d="M324.05,267h-144.5c-14.85,0-26.95-11.78-27.47-26.5c-0.01,0.33-0.03,0.66-0.03,1v10
	c0,15.19,12.31,27.5,27.5,27.5h144.5c15.19,0,27.5-12.31,27.5-27.5v-10c0-0.34-0.01-0.67-0.03-1C350.99,255.22,338.9,267,324.05,267
	z"/>
<path class="st9" d="M279.12,399h-54.64c-8.94,0-16.18-7.24-16.18-16.18V331.5c0-24.02,19.48-43.5,43.5-43.5h0
	c24.02,0,43.5,19.48,43.5,43.5v51.32C295.3,391.76,288.05,399,279.12,399z"/>
<path class="st10" d="M237.77,113.52l-14.62-3.34c-2.96-0.68-4.81-3.62-4.14-6.59v0c0.68-2.96,3.62-4.81,6.59-4.14l14.62,3.34
	c2.96,0.68,4.81,3.62,4.14,6.59l0,0C243.68,112.34,240.73,114.19,237.77,113.52z"/>
<path class="st10" d="M280.44,110.18l-14.62,3.34c-2.96,0.68-5.91-1.18-6.59-4.14v0c-0.68-2.96,1.18-5.91,4.14-6.59L278,99.46
	c2.96-0.68,5.91,1.18,6.59,4.14v0C285.26,106.56,283.41,109.5,280.44,110.18z"/>
<path class="st0" d="M238,112.54l-14.62-3.34c-2.96-0.68-4.81-3.62-4.14-6.59v0c0.68-2.96,3.62-4.81,6.59-4.14l14.62,3.34
	c2.96,0.68,4.81,3.62,4.14,6.59v0C243.91,111.37,240.96,113.22,238,112.54z"/>
<path class="st0" d="M280.22,109.21l-14.62,3.34c-2.96,0.68-5.91-1.18-6.59-4.14v0c-0.68-2.96,1.18-5.91,4.14-6.59l14.62-3.34
	c2.96-0.68,5.91,1.18,6.59,4.14v0C285.04,105.58,283.18,108.53,280.22,109.21z"/>
<g>
	<path d="M235.8,129L235.8,129c-1.38,0-2.5-1.12-2.5-2.5v-9c0-1.38,1.12-2.5,2.5-2.5l0,0c1.38,0,2.5,1.12,2.5,2.5v9
		C238.3,127.88,237.18,129,235.8,129z"/>
	<path d="M267.8,129L267.8,129c-1.38,0-2.5-1.12-2.5-2.5v-9c0-1.38,1.12-2.5,2.5-2.5l0,0c1.38,0,2.5,1.12,2.5,2.5v9
		C270.3,127.88,269.18,129,267.8,129z"/>
</g>
<path class="st0" d="M234.3,142l35,0c14.91,0,27,12.09,27,27v58c0,3.31-2.69,6-6,6l-77,0c-3.31,0-6-2.69-6-6v-58
	C207.3,154.09,219.39,142,234.3,142z"/>
<path class="st6" d="M251.8,149L251.8,149c-3.87,0-7-3.13-7-7v-7h14v7C258.8,145.87,255.66,149,251.8,149z"/>
<path class="st11" d="M282,226L282,226c-1.66,0-3-1.34-3-3v-38c0-1.66,1.34-3,3-3l0,0c1.66,0,3,1.34,3,3v38
	C285,224.66,283.66,226,282,226z"/>
<circle class="st11" cx="282" cy="174" r="4"/>
<path class="st11" d="M278.31,102.47l-13.18,3.01c-0.54,0.12-1.07-0.21-1.2-0.75v0c-0.12-0.54,0.21-1.07,0.75-1.2l13.18-3.01
	c0.54-0.12,1.07,0.21,1.2,0.75v0C279.19,101.81,278.85,102.35,278.31,102.47z"/>
<path class="st11" d="M237.86,105.48l-13.18-3.01c-0.54-0.12-0.88-0.66-0.75-1.2l0,0c0.12-0.54,0.66-0.88,1.2-0.75l13.18,3.01
	c0.54,0.12,0.88,0.66,0.75,1.2l0,0C238.94,105.26,238.4,105.6,237.86,105.48z"/>
<ellipse transform="matrix(0.5 -0.866 0.866 0.5 62.7628 270.9297)" class="st12" cx="266.01" cy="81.11" rx="6.97" ry="13.5"/>
<path class="st13" d="M315,262c1.78,0.34,12.65,2.25,22-5c5.91-4.58,8.19-10.48,9-13"/>
<path class="st14" d="M282.5,384L282.5,384c-1.93,0-3.5-1.57-3.5-3.5v-39c0-1.93,1.57-3.5,3.5-3.5l0,0c1.93,0,3.5,1.57,3.5,3.5v39
	C286,382.43,284.43,384,282.5,384z"/>
<path class="st15" d="M360,394L360,394c-1.66,0-3-1.34-3-3v-93c0-1.66,1.34-3,3-3l0,0c1.66,0,3,1.34,3,3v93
	C363,392.66,361.66,394,360,394z"/>
<path class="st15" d="M144,350L144,350c-1.66,0-3-1.34-3-3v-53c0-1.66,1.34-3,3-3l0,0c1.66,0,3,1.34,3,3v53
	C147,348.66,145.66,350,144,350z"/>
<path class="st16" d="M179,285c1.4,6.05,4.36,15.34,11,25c5.11,7.43,10.71,12.61,15,16"/>
</svg>
