<?xml version="1.0" encoding="utf-8"?>
<!-- Generator: Adobe Illustrator 23.0.3, SVG Export Plug-In . SVG Version: 6.00 Build 0)  -->
<svg version="1.1" id="Calque_1" xmlns="http://www.w3.org/2000/svg" xmlns:xlink="http://www.w3.org/1999/xlink" x="0px" y="0px"
	 viewBox="0 0 500 500" style="enable-background:new 0 0 500 500;" xml:space="preserve">
<style type="text/css">
	.st0{fill:#F4B037;}
	.st1{fill:#C6841A;}
	.st2{fill:#896429;}
	.st3{fill:#7D8E9E;}
	.st4{fill:#F5F6E8;}
	.st5{fill:#F8C09D;}
	.st6{fill:#E8A78B;}
	.st7{fill:#B6C3CC;}
	.st8{fill:#939FA5;}
	.st9{fill:#66342D;}
	.st10{opacity:0.5;fill:#9A605C;}
	.st11{fill:#EF937E;}
	.st12{fill:#6F1E49;}
	.st13{fill:#DC166D;}
	.st14{fill:#FFFFFF;}
	.st15{opacity:0.8;fill:#FFFFFF;}
	.st16{fill:#C66320;}
	.st17{fill:#D3D3CB;}
	.st18{display:none;fill:none;stroke:#B6C3CC;stroke-width:12;stroke-miterlimit:10;}
	.st19{fill:#AABFD0;}
	.st20{fill:#262222;}
	.st21{fill:none;stroke:#D0E2EE;stroke-width:4;stroke-linecap:round;stroke-miterlimit:10;}
	.st22{fill:#92A6B7;}
	.st23{opacity:0.8;}
	.st24{fill:#5B6571;}
	.st25{fill:none;stroke:#FEBE40;stroke-width:5;stroke-miterlimit:10;}
	.st26{fill:#B6C3CC;stroke:#FEBE40;stroke-width:4;stroke-miterlimit:10;}
	.st27{fill:#FEBE40;}
	.st28{fill:#DC1C4B;}
	.st29{fill:#EA5781;}
	.st30{fill:#FFC064;}
	.st31{fill:none;stroke:#C1D7E5;stroke-width:4;stroke-linecap:round;stroke-miterlimit:10;}
	.st32{fill:none;stroke:#C1D7E5;stroke-width:3;stroke-linecap:round;stroke-linejoin:round;stroke-miterlimit:10;}
	.st33{fill:#D0E2EE;}
	.st34{fill:#F24979;}
</style>
<polygon class="st0" points="243.93,232.05 234.09,241.19 172.76,160.3 182.59,151.17 "/>
<path class="st1" d="M224.06,214.44l-15.46,1.5v0c-0.35-4.4,2.59-8.28,6.57-8.67l8.26-0.8L224.06,214.44z"/>
<path class="st2" d="M290.91,125h-76.69c-1.28,0-2.32-1.04-2.32-2.32v-14.35c0-1.28,1.04-2.32,2.32-2.32h76.69
	c1.28,0,2.32,1.04,2.32,2.32v14.35C293.24,123.96,292.2,125,290.91,125z"/>
<path class="st3" d="M194.47,423H195c8.84,0,16-7.16,16-16V269h-32.53v138C178.47,415.84,185.63,423,194.47,423z"/>
<path class="st3" d="M312.48,423h-0.53c-8.84,0-16-7.16-16-16V269h32.53v138C328.48,415.84,321.32,423,312.48,423z"/>
<path class="st3" d="M178.47,275h49.7v-59h0c-27.45,0-49.7,22.25-49.7,49.7V275z"/>
<path class="st3" d="M328.48,274h-51.51v-59h0c28.45,0,51.51,23.06,51.51,51.51V274z"/>
<path d="M299.89,359h-94.65c-1.31,0-2.38-1.07-2.38-2.38v-15.24c0-1.31,1.07-2.38,2.38-2.38h94.65c1.31,0,2.38,1.07,2.38,2.38v15.24
	C302.27,357.93,301.21,359,299.89,359z"/>
<path class="st4" d="M301.39,379h-97.6V258.8c0-26.95,21.85-48.8,48.8-48.8h0c26.95,0,48.8,21.85,48.8,48.8V379z"/>
<rect x="228" y="161.5" class="st5" width="49.23" height="76"/>
<path class="st6" d="M252.61,204L252.61,204c-13.59,0-24.62-11.02-24.62-24.62V128h49.23v51.38C277.23,192.98,266.21,204,252.61,204
	z"/>
<path class="st7" d="M268.18,234h-31.19c-7.85,0-14.21-6.36-14.21-14.21v-64.07c0-7.85,6.36-14.21,14.21-14.21h31.19
	c7.85,0,14.21,6.36,14.21,14.21v64.07C282.39,227.64,276.03,234,268.18,234z"/>
<path class="st8" d="M267.35,202h-29.52c-8.31,0-15.05-6.74-15.05-15.05v-53.91c0-8.31,6.74-15.05,15.05-15.05h29.52
	c8.31,0,15.05,6.74,15.05,15.05v53.91C282.39,195.26,275.66,202,267.35,202z"/>
<path class="st9" d="M291.4,146h-77.72V92.94c0-19.3,15.64-34.94,34.94-34.94h7.84c19.3,0,34.94,15.64,34.94,34.94V146z"/>
<path class="st5" d="M252.67,189L252.67,189c-17.47,0-31.63-14.16-31.63-31.63v-53.74c0-17.47,14.16-31.63,31.63-31.63h0
	c17.47,0,31.63,14.16,31.63,31.63v53.74C284.3,174.84,270.14,189,252.67,189z"/>
<path class="st10" d="M243.69,113H228.1c-1.93,0-3.5-1.57-3.5-3.5l0,0c0-1.93,1.57-3.5,3.5-3.5h15.59c1.93,0,3.5,1.57,3.5,3.5l0,0
	C247.19,111.43,245.63,113,243.69,113z"/>
<path class="st9" d="M242.79,111H227.2c-1.93,0-3.5-1.57-3.5-3.5l0,0c0-1.93,1.57-3.5,3.5-3.5h15.59c1.93,0,3.5,1.57,3.5,3.5l0,0
	C246.29,109.43,244.72,111,242.79,111z"/>
<path d="M239.51,122L239.51,122c-0.75,0-1.36-0.61-1.36-1.36v-5.29c0-0.75,0.61-1.36,1.36-1.36l0,0c0.75,0,1.36,0.61,1.36,1.36v5.29
	C240.87,121.39,240.26,122,239.51,122z"/>
<path class="st10" d="M261.54,113h15.59c1.93,0,3.5-1.57,3.5-3.5l0,0c0-1.93-1.57-3.5-3.5-3.5h-15.59c-1.93,0-3.5,1.57-3.5,3.5l0,0
	C258.04,111.43,259.6,113,261.54,113z"/>
<path class="st9" d="M262.44,111h15.59c1.93,0,3.5-1.57,3.5-3.5l0,0c0-1.93-1.57-3.5-3.5-3.5h-15.59c-1.93,0-3.5,1.57-3.5,3.5l0,0
	C258.94,109.43,260.51,111,262.44,111z"/>
<path d="M265.72,122L265.72,122c0.75,0,1.36-0.61,1.36-1.36v-5.29c0-0.75-0.61-1.36-1.36-1.36l0,0c-0.75,0-1.36,0.61-1.36,1.36v5.29
	C264.36,121.39,264.97,122,265.72,122z"/>
<path class="st10" d="M277.56,95h-50.03c-1.91,0-3.45-1.55-3.45-3.45V75.45c0-1.91,1.55-3.45,3.45-3.45h50.03
	c1.91,0,3.45,1.55,3.45,3.45v16.09C281.01,93.45,279.47,95,277.56,95z"/>
<path class="st5" d="M223.75,118.59v5.81c0,1.43-1.16,2.59-2.59,2.59h-1.85c-3.04,0-5.5-2.46-5.5-5.5v0c0-3.04,2.46-5.5,5.5-5.5
	h1.85C222.59,116,223.75,117.16,223.75,118.59z"/>
<g>
	<path class="st11" d="M259.56,178h-14.47c-7.73,0-14-6.27-14-14v-15.13c0-0.48,0.39-0.87,0.87-0.87h40.74
		c0.48,0,0.87,0.39,0.87,0.87V164C273.56,171.73,267.29,178,259.56,178z"/>
	<path class="st12" d="M261.65,175h-18.86c-5.52,0-10-4.48-10-10v-14.22c0-0.43,0.35-0.78,0.78-0.78h37.31
		c0.43,0,0.78,0.35,0.78,0.78V165C271.65,170.52,267.17,175,261.65,175z"/>
	<path class="st13" d="M260.91,175h-17.17v-3.41c0-4.74,3.84-8.59,8.59-8.59h0c4.74,0,8.59,3.84,8.59,8.59V175z"/>
	<path class="st14" d="M255.55,158h-6.46c-2.21,0-4-1.79-4-4v-3.79c0-0.12,0.1-0.21,0.21-0.21h14.03c0.12,0,0.21,0.1,0.21,0.21V154
		C259.55,156.21,257.76,158,255.55,158z"/>
	<path class="st14" d="M263.59,175h-22.54c-0.02,0-0.03-0.01-0.03-0.03V173c0-1.1,0.9-2,2-2h18.59c1.1,0,2,0.9,2,2v1.97
		C263.62,174.99,263.61,175,263.59,175z"/>
</g>
<path class="st9" d="M278.98,93h-52.74c-1.91,0-3.45-1.55-3.45-3.45V73.45c0-1.91,1.55-3.45,3.45-3.45h52.74
	c1.91,0,3.45,1.55,3.45,3.45v16.09C282.44,91.45,280.89,93,278.98,93z"/>
<path class="st5" d="M281.59,118.59v5.81c0,1.43,1.16,2.59,2.59,2.59h1.85c3.04,0,5.5-2.46,5.5-5.5v0c0-3.04-2.46-5.5-5.5-5.5h-1.85
	C282.75,116,281.59,117.16,281.59,118.59z"/>
<g>
	<path class="st6" d="M216.28,123.27L216.28,123.27c-0.24-0.27-0.24-0.7,0-0.96l2.32-2.57c0.24-0.27,0.63-0.27,0.87,0l0,0
		c0.24,0.27,0.24,0.7,0,0.96l-2.32,2.57C216.91,123.53,216.52,123.53,216.28,123.27z"/>
	<path class="st6" d="M219.48,123.27L219.48,123.27c-0.24,0.27-0.63,0.27-0.87,0l-2.32-2.57c-0.24-0.27-0.24-0.7,0-0.96l0,0
		c0.24-0.27,0.63-0.27,0.87,0l2.32,2.57C219.72,122.57,219.72,123,219.48,123.27z"/>
</g>
<g>
	<path class="st6" d="M284.96,123.27L284.96,123.27c-0.24-0.27-0.24-0.7,0-0.96l2.32-2.57c0.24-0.27,0.63-0.27,0.87,0l0,0
		c0.24,0.27,0.24,0.7,0,0.96l-2.32,2.57C285.59,123.53,285.2,123.53,284.96,123.27z"/>
	<path class="st6" d="M288.16,123.27L288.16,123.27c-0.24,0.27-0.63,0.27-0.87,0l-2.32-2.57c-0.24-0.27-0.24-0.7,0-0.96l0,0
		c0.24-0.27,0.63-0.27,0.87,0l2.32,2.57C288.4,122.57,288.4,123,288.16,123.27z"/>
</g>
<path class="st9" d="M232.79,147L232.79,147c-0.5,0-0.9-0.4-0.9-0.9v-5.19c0-0.5,0.4-0.9,0.9-0.9l0,0c0.5,0,0.9,0.4,0.9,0.9v5.19
	C233.7,146.6,233.29,147,232.79,147z"/>
<path class="st9" d="M236.41,147L236.41,147c-0.5,0-0.9-0.4-0.9-0.9v-5.19c0-0.5,0.4-0.9,0.9-0.9l0,0c0.5,0,0.9,0.4,0.9,0.9v5.19
	C237.31,146.6,236.91,147,236.41,147z"/>
<path class="st9" d="M240.02,147L240.02,147c-0.5,0-0.9-0.4-0.9-0.9v-5.19c0-0.5,0.4-0.9,0.9-0.9l0,0c0.5,0,0.9,0.4,0.9,0.9v5.19
	C240.93,146.6,240.52,147,240.02,147z"/>
<path class="st9" d="M243.64,147L243.64,147c-0.5,0-0.9-0.4-0.9-0.9v-5.19c0-0.5,0.4-0.9,0.9-0.9l0,0c0.5,0,0.9,0.4,0.9,0.9v5.19
	C244.54,146.6,244.14,147,243.64,147z"/>
<path class="st9" d="M247.25,147L247.25,147c-0.5,0-0.9-0.4-0.9-0.9v-5.19c0-0.5,0.4-0.9,0.9-0.9l0,0c0.5,0,0.9,0.4,0.9,0.9v5.19
	C248.15,146.6,247.75,147,247.25,147z"/>
<path class="st9" d="M250.87,147L250.87,147c-0.5,0-0.9-0.4-0.9-0.9v-5.19c0-0.5,0.4-0.9,0.9-0.9l0,0c0.5,0,0.9,0.4,0.9,0.9v5.19
	C251.77,146.6,251.36,147,250.87,147z"/>
<path class="st9" d="M254.48,147L254.48,147c-0.5,0-0.9-0.4-0.9-0.9v-5.19c0-0.5,0.4-0.9,0.9-0.9l0,0c0.5,0,0.9,0.4,0.9,0.9v5.19
	C255.38,146.6,254.98,147,254.48,147z"/>
<path class="st9" d="M258.1,147L258.1,147c-0.5,0-0.9-0.4-0.9-0.9v-5.19c0-0.5,0.4-0.9,0.9-0.9l0,0c0.5,0,0.9,0.4,0.9,0.9v5.19
	C259,146.6,258.59,147,258.1,147z"/>
<path class="st9" d="M261.71,147L261.71,147c-0.5,0-0.9-0.4-0.9-0.9v-5.19c0-0.5,0.4-0.9,0.9-0.9l0,0c0.5,0,0.9,0.4,0.9,0.9v5.19
	C262.61,146.6,262.21,147,261.71,147z"/>
<path class="st11" d="M254.17,144h-3c-2.17,0-3.92-1.76-3.92-3.92v-14.16c0-2.17,1.76-3.92,3.92-3.92h3c2.17,0,3.92,1.76,3.92,3.92
	v14.16C258.1,142.24,256.34,144,254.17,144z"/>
<path class="st9" d="M265.32,147L265.32,147c-0.5,0-0.9-0.4-0.9-0.9v-5.19c0-0.5,0.4-0.9,0.9-0.9l0,0c0.5,0,0.9,0.4,0.9,0.9v5.19
	C266.23,146.6,265.82,147,265.32,147z"/>
<path class="st9" d="M268.94,147L268.94,147c-0.5,0-0.9-0.4-0.9-0.9v-5.19c0-0.5,0.4-0.9,0.9-0.9l0,0c0.5,0,0.9,0.4,0.9,0.9v5.19
	C269.84,146.6,269.44,147,268.94,147z"/>
<path class="st9" d="M272.55,147L272.55,147c-0.5,0-0.9-0.4-0.9-0.9v-5.19c0-0.5,0.4-0.9,0.9-0.9l0,0c0.5,0,0.9,0.4,0.9,0.9v5.19
	C273.46,146.6,273.05,147,272.55,147z"/>
<path class="st15" d="M249.96,134L249.96,134c-0.5,0-0.9-0.4-0.9-0.9v-5.19c0-0.5,0.4-0.9,0.9-0.9l0,0c0.5,0,0.9,0.4,0.9,0.9v5.19
	C250.87,133.6,250.46,134,249.96,134z"/>
<polygon class="st16" points="243.99,237.27 243.81,237.62 244.17,237.62 "/>
<path class="st4" d="M288.81,409h-71.58c-12.43,0-22.5-10.07-22.5-22.5v0c0-12.43,10.07-22.5,22.5-22.5h71.58
	c12.43,0,22.5,10.07,22.5,22.5v0C311.31,398.93,301.24,409,288.81,409z"/>
<path class="st17" d="M293.22,399h-80.4c-8.61,0-15.81-7.48-17.64-17.5c-0.29,1.61-0.45,3.28-0.45,5v0c0,12.43,8.1,22.5,18.09,22.5
	h80.4c9.99,0,18.09-10.07,18.09-22.5v0c0-1.72-0.16-3.39-0.45-5C309.03,391.52,301.83,399,293.22,399z"/>
<path class="st18" d="M259.01,189h-12.02c-17.67,0-31.99-14.32-31.99-31.99V104h76v53.01C291,174.68,276.68,189,259.01,189z"/>
<path class="st19" d="M292.33,108h-79.52V67.46c0-6.33,5.13-11.46,11.46-11.46h56.6c6.33,0,11.46,5.13,11.46,11.46V108z"/>
<path class="st7" d="M328.48,262H178.47v-5c0-27.06,21.94-49,49-49h52.01c27.06,0,49,21.94,49,49V262z"/>
<path class="st20" d="M298.16,361h-91.18c-2.27,0-4.11-1.84-4.11-4.11V341h99.41v15.89C302.27,359.16,300.43,361,298.16,361z"/>
<path class="st21" d="M294.3,220.19c3.41,1.39,8.78,4.1,14.12,9.37c5.27,5.19,8.31,10.69,9.96,14.25"/>
<path class="st21" d="M210.84,220.19c-3.41,1.39-8.78,4.1-14.12,9.37c-5.27,5.19-8.31,10.69-9.96,14.25"/>
<rect x="255.28" y="170" class="st13" width="3.61" height="5"/>
<path class="st22" d="M308.6,351L308.6,351c-1.5,0-2.71-1.21-2.71-2.71v-18.58c0-1.5,1.21-2.71,2.71-2.71l0,0
	c1.5,0,2.71,1.21,2.71,2.71v18.58C311.31,349.79,310.1,351,308.6,351z"/>
<path class="st22" d="M197.45,298L197.45,298c-1.5,0-2.71-1.21-2.71-2.71v-18.58c0-1.5,1.21-2.71,2.71-2.71l0,0
	c1.5,0,2.71,1.21,2.71,2.71v18.58C200.16,296.79,198.94,298,197.45,298z"/>
<path class="st19" d="M252.57,194.99C252.57,194.99,252.57,194.99,252.57,194.99c-1.73,0.28-17.64,2.55-29.82-11.32
	c-12.18-13.87-10.19-31.99-9.94-33.97V125h79.52c0,8.23,0,16.47,0,24.7c0.25,1.97,2.24,20.1-9.94,33.97
	C270.22,197.54,254.3,195.27,252.57,194.99z"/>
<ellipse class="st23" cx="217.33" cy="137" rx="2.71" ry="3"/>
<ellipse class="st23" cx="227.72" cy="137" rx="2.71" ry="3"/>
<ellipse class="st23" cx="238.11" cy="137" rx="2.71" ry="3"/>
<ellipse class="st23" cx="266.13" cy="137" rx="2.71" ry="3"/>
<ellipse class="st23" cx="276.52" cy="137" rx="2.71" ry="3"/>
<ellipse class="st23" cx="286.91" cy="137" rx="2.71" ry="3"/>
<ellipse class="st23" cx="217.33" cy="148" rx="2.71" ry="3"/>
<ellipse class="st23" cx="227.72" cy="148" rx="2.71" ry="3"/>
<ellipse class="st23" cx="238.11" cy="148" rx="2.71" ry="3"/>
<ellipse class="st23" cx="266.13" cy="148" rx="2.71" ry="3"/>
<ellipse class="st23" cx="276.52" cy="148" rx="2.71" ry="3"/>
<ellipse class="st23" cx="286.91" cy="148" rx="2.71" ry="3"/>
<ellipse class="st23" cx="217.33" cy="158" rx="2.71" ry="3"/>
<ellipse class="st23" cx="227.72" cy="158" rx="2.71" ry="3"/>
<ellipse class="st23" cx="238.11" cy="158" rx="2.71" ry="3"/>
<ellipse class="st23" cx="266.13" cy="158" rx="2.71" ry="3"/>
<ellipse class="st23" cx="276.52" cy="158" rx="2.71" ry="3"/>
<ellipse class="st23" cx="286.91" cy="158" rx="2.71" ry="3"/>
<ellipse class="st23" cx="227.72" cy="167" rx="2.71" ry="3"/>
<ellipse class="st23" cx="238.11" cy="167" rx="2.71" ry="3"/>
<ellipse class="st23" cx="266.13" cy="167" rx="2.71" ry="3"/>
<ellipse class="st23" cx="276.52" cy="167" rx="2.71" ry="3"/>
<ellipse class="st23" cx="227.72" cy="176" rx="2.71" ry="3"/>
<ellipse class="st23" cx="238.11" cy="176" rx="2.71" ry="3"/>
<ellipse class="st23" cx="266.13" cy="176" rx="2.71" ry="3"/>
<ellipse class="st23" cx="276.52" cy="176" rx="2.71" ry="3"/>
<ellipse class="st23" cx="238.11" cy="185" rx="2.71" ry="3"/>
<ellipse class="st23" cx="266.13" cy="185" rx="2.71" ry="3"/>
<path class="st13" d="M211.91,108v16.87c0,1.17,0.77,2.13,1.72,2.13h77.9c0.95,0,1.72-0.95,1.72-2.13V108H211.91z M243.89,122.53
	h-21.02v-6.71h21.02V122.53z M282.27,122.53h-21.02v-6.71h21.02V122.53z"/>
<path class="st13" d="M327.25,266c-39.37,0-78.74,0-118.11,0c-9.81,0-19.63,0-29.44,0c-3.15,0-5.75-2.71-5.75-6
	c0-3.31,2.57-6,5.75-6h147.55c3.17,0,5.75,2.69,5.75,6S330.43,266,327.25,266z"/>
<path class="st13" d="M255.75,196h-7.26c-2.74,0-4.95-2.22-4.95-4.95V81.95c0-2.74,2.22-4.95,4.95-4.95h7.26
	c2.74,0,4.95,2.22,4.95,4.95v109.09C260.7,193.78,258.49,196,255.75,196z"/>
<path class="st24" d="M290.64,84H214.5c-1.93,0-3.5-1.57-3.5-3.5l0,0c0-1.93,1.57-3.5,3.5-3.5h76.14c1.93,0,3.5,1.57,3.5,3.5l0,0
	C294.14,82.43,292.57,84,290.64,84z"/>
<path class="st25" d="M262.94,363H242.2c-2.76,0-5-2.24-5-5V344c0-2.76,2.24-5,5-5h20.73c2.76,0,5,2.24,5,5V358
	C267.93,360.76,265.7,363,262.94,363z"/>
<path class="st7" d="M416,247"/>
<path class="st26" d="M635.1,420.03l61.48-54.25c4.09-3.61,5.39-9.43,3.22-14.43l-32.6-75.24c-2.17-5-7.31-8.04-12.73-7.52
	l-81.63,7.75c-5.42,0.52-9.9,4.46-11.09,9.78l-17.85,80.03c-1.19,5.32,1.19,10.8,5.88,13.57l70.59,41.71
	C625.07,424.2,631.01,423.64,635.1,420.03z"/>
<rect x="609.5" y="273.86" transform="matrix(0.9955 -0.0946 0.0946 0.9955 -26.2012 59.5553)" class="st27" width="11.56" height="64.74"/>
<rect x="578.41" y="301.55" transform="matrix(0.173 -0.9849 0.9849 0.173 154.2241 851.5118)" class="st27" width="11.56" height="64.74"/>
<rect x="592.55" y="339.05" transform="matrix(-0.8234 -0.5675 0.5675 -0.8234 880.2274 1016.7668)" class="st27" width="11.56" height="64.74"/>
<rect x="640.34" y="335.78" transform="matrix(-0.7018 0.7123 -0.7123 -0.7018 1361.8427 166.2621)" class="st27" width="11.56" height="64.74"/>
<rect x="647.34" y="295.79" transform="matrix(0.3426 0.9395 -0.9395 0.3426 737.661 -397.8607)" class="st27" width="11.56" height="64.74"/>
<circle class="st3" cx="619.17" cy="342.51" r="13"/>
<ellipse class="st1" cx="181.18" cy="161" rx="9.04" ry="10"/>
<ellipse class="st0" cx="177.66" cy="156" rx="13.56" ry="15"/>
<polygon class="st28" points="181.27,149.07 174.04,149.07 170.43,156 174.04,162.93 181.27,162.93 184.88,156 "/>
<path class="st29" d="M183.76,156.53L183.76,156.53c-0.22,0.14-0.49,0.06-0.62-0.18l-2.71-5.2c-0.12-0.24-0.05-0.54,0.17-0.68l0,0
	c0.22-0.14,0.49-0.06,0.62,0.18l2.71,5.2C184.05,156.09,183.97,156.39,183.76,156.53z"/>
<path class="st29" d="M171.56,156.53L171.56,156.53c-0.22-0.14-0.29-0.44-0.17-0.68l2.71-5.2c0.12-0.24,0.4-0.32,0.62-0.18l0,0
	c0.22,0.14,0.29,0.44,0.17,0.68l-2.71,5.2C172.05,156.59,171.77,156.67,171.56,156.53z"/>
<path class="st29" d="M180.28,161.5L180.28,161.5c0,0.28-0.22,0.5-0.5,0.5h-4.24c-0.28,0-0.5-0.22-0.5-0.5l0,0
	c0-0.28,0.22-0.5,0.5-0.5h4.24C180.05,161,180.28,161.22,180.28,161.5z"/>
<path class="st30" d="M212.61,195.89L212.61,195.89c-0.38,0.36-0.95,0.3-1.27-0.12l-9.29-12.26c-0.32-0.42-0.27-1.05,0.11-1.41l0,0
	c0.38-0.36,0.95-0.3,1.27,0.12l9.29,12.26C213.05,194.91,213,195.54,212.61,195.89z"/>
<path class="st31" d="M637.83,281.38c1.9-0.25,4.68-0.56,8.05-0.78c8.89-0.58,10.64,0.23,11.73,1.19c0.57,0.5,0.77,0.87,2.86,5.53
	c1.16,2.59,2.16,4.85,2.97,6.68"/>
<path class="st31" d="M567.79,382.05c-1.69-0.9-4.13-2.26-7.01-4.04c-7.57-4.69-8.53-6.37-8.86-7.77c-0.17-0.73-0.12-1.16,0.88-6.16
	c0.56-2.78,1.05-5.2,1.46-7.16"/>
<path class="st32" d="M276.07,61c2.54-0.08,4.69-0.05,6.33,0c3.1,0.1,3.91,0.28,4.52,1c0.7,0.83,0.78,2.23,0.9,5
	c0.08,1.68,0.04,3.06,0,4"/>
<path class="st33" d="M217.33,104.5L217.33,104.5c-0.75,0-1.36-0.61-1.36-1.36V88.86c0-0.75,0.61-1.36,1.36-1.36l0,0
	c0.75,0,1.36,0.61,1.36,1.36v14.29C218.68,103.89,218.08,104.5,217.33,104.5z"/>
<path class="st34" d="M257.54,183L257.54,183c-0.75,0-1.36-0.61-1.36-1.36v-22.29c0-0.75,0.61-1.36,1.36-1.36h0
	c0.75,0,1.36,0.61,1.36,1.36v22.29C258.9,182.39,258.29,183,257.54,183z"/>
<path class="st34" d="M247.6,106L247.6,106c-0.75,0-1.36-0.61-1.36-1.36v-7.29c0-0.75,0.61-1.36,1.36-1.36l0,0
	c0.75,0,1.36,0.61,1.36,1.36v7.29C248.96,105.39,248.35,106,247.6,106z"/>
<path class="st22" d="M184.79,395L184.79,395c-1.5,0-2.71-1.21-2.71-2.71v-37.58c0-1.5,1.21-2.71,2.71-2.71l0,0
	c1.5,0,2.71,1.21,2.71,2.71v37.58C187.51,393.79,186.29,395,184.79,395z"/>
<g>
	<polygon class="st28" points="623.17,336.07 615.17,336.07 611.17,343 615.17,349.93 623.17,349.93 627.17,343 	"/>
	<path class="st29" d="M624.92,343.53L624.92,343.53c-0.24,0.14-0.54,0.06-0.68-0.18l-3-5.2c-0.14-0.24-0.06-0.54,0.18-0.68l0,0
		c0.24-0.14,0.54-0.06,0.68,0.18l3,5.2C625.24,343.09,625.16,343.39,624.92,343.53z"/>
	<path class="st29" d="M613.42,343.53L613.42,343.53c-0.24-0.14-0.32-0.44-0.18-0.68l3-5.2c0.14-0.24,0.44-0.32,0.68-0.18l0,0
		c0.24,0.14,0.32,0.44,0.18,0.68l-3,5.2C613.96,343.59,613.66,343.67,613.42,343.53z"/>
	<path class="st29" d="M622.07,348.5L622.07,348.5c0,0.28-0.22,0.5-0.5,0.5h-4.8c-0.28,0-0.5-0.22-0.5-0.5l0,0
		c0-0.28,0.22-0.5,0.5-0.5h4.8C621.85,348,622.07,348.22,622.07,348.5z"/>
</g>
</svg>
