<?xml version="1.0" encoding="utf-8"?>
<!-- Generator: Adobe Illustrator 23.0.3, SVG Export Plug-In . SVG Version: 6.00 Build 0)  -->
<svg version="1.1" id="Calque_1" xmlns="http://www.w3.org/2000/svg" xmlns:xlink="http://www.w3.org/1999/xlink" x="0px" y="0px"
	 viewBox="0 0 500 500" style="enable-background:new 0 0 500 500;" xml:space="preserve">
<style type="text/css">
	.st0{fill:#F4B037;}
	.st1{fill:#C6841A;}
	.st2{fill:#896429;}
	.st3{fill:#7D8E9E;}
	.st4{fill:#F5F6E8;}
	.st5{fill:#F8C09D;}
	.st6{fill:#E8A78B;}
	.st7{fill:#B6C3CC;}
	.st8{fill:#939FA5;}
	.st9{fill:#66342D;}
	.st10{fill:#AABFD0;}
	.st11{opacity:0.5;fill:#9A605C;}
	.st12{fill:#EF937E;}
	.st13{fill:#6F1E49;}
	.st14{fill:#DC166D;}
	.st15{fill:#FFFFFF;}
	.st16{opacity:0.8;fill:#FFFFFF;}
	.st17{fill:#C66320;}
	.st18{fill:#D3D3CB;}
	.st19{display:none;fill:none;stroke:#B6C3CC;stroke-width:12;stroke-miterlimit:10;}
	.st20{fill:#262222;}
	.st21{fill:none;stroke:#D0E2EE;stroke-width:4;stroke-linecap:round;stroke-miterlimit:10;}
	.st22{fill:#92A6B7;}
	.st23{opacity:0.8;}
	.st24{fill:#2BB3CD;}
	.st25{fill:none;stroke:#FEBE40;stroke-width:5;stroke-miterlimit:10;}
	.st26{fill:#B6C3CC;stroke:#FEBE40;stroke-width:4;stroke-miterlimit:10;}
	.st27{fill:#FEBE40;}
	.st28{fill:#DC1C4B;}
	.st29{fill:#EA5781;}
	.st30{fill:#FFC064;}
	.st31{fill:none;stroke:#C1D7E5;stroke-width:4;stroke-linecap:round;stroke-miterlimit:10;}
	.st32{fill:none;stroke:#C1D7E5;stroke-width:3;stroke-linecap:round;stroke-linejoin:round;stroke-miterlimit:10;}
	.st33{fill:#D0E2EE;}
	.st34{fill:#5B6571;}
	.st35{fill:#AEE2FF;}
</style>
<rect x="196.95" y="143.39" transform="matrix(0.766 -0.6428 0.6428 0.766 -78.3601 177.0614)" class="st0" width="14.21" height="105.58"/>
<path class="st1" d="M221.46,214.44l-17.11,1.5v0c-0.39-4.4,2.87-8.28,7.27-8.67l9.14-0.8L221.46,214.44z"/>
<path class="st2" d="M295.68,125h-85.35c-1.28,0-2.32-1.04-2.32-2.32v-14.35c0-1.28,1.04-2.32,2.32-2.32h85.35
	c1.28,0,2.32,1.04,2.32,2.32v14.35C298,123.96,296.96,125,295.68,125z"/>
<path class="st3" d="M174.74,423h9.32c8.84,0,16-7.16,16-16V269h-41.32v138C158.74,415.84,165.9,423,174.74,423z"/>
<path class="st3" d="M333.26,423h-9.32c-8.84,0-16-7.16-16-16V269h41.32v138C349.26,415.84,342.1,423,333.26,423z"/>
<path class="st3" d="M158.74,275h63.13v-59h-10.13c-29.27,0-53,23.73-53,53V275z"/>
<path class="st3" d="M349.26,274h-65.42v-59h12.42c29.27,0,53,23.73,53,53V274z"/>
<path d="M313.6,359H192.11c-1.31,0-2.38-1.07-2.38-2.38v-15.24c0-1.31,1.07-2.38,2.38-2.38H313.6c1.31,0,2.38,1.07,2.38,2.38v15.24
	C315.98,357.93,314.91,359,313.6,359z"/>
<path class="st4" d="M314.85,379H190.89V264c0-29.82,24.18-54,54-54h15.95c29.82,0,54,24.18,54,54V379z"/>
<rect x="225.81" y="161.5" class="st5" width="54.48" height="76"/>
<path class="st6" d="M253.05,204L253.05,204c-15.04,0-27.24-12.2-27.24-27.24V128h54.48v48.76C280.29,191.8,268.09,204,253.05,204z"
	/>
<path class="st7" d="M271.79,234h-37.54c-7.85,0-14.21-6.36-14.21-14.21v-64.07c0-7.85,6.36-14.21,14.21-14.21h37.54
	c7.85,0,14.21,6.36,14.21,14.21v64.07C286,227.64,279.64,234,271.79,234z"/>
<path class="st8" d="M270.95,202h-35.87c-8.31,0-15.05-6.74-15.05-15.05v-53.91c0-8.31,6.74-15.05,15.05-15.05h35.87
	c8.31,0,15.05,6.74,15.05,15.05v53.91C286,195.26,279.26,202,270.95,202z"/>
<path class="st9" d="M295.97,146h-86V92.94c0-19.3,15.64-34.94,34.94-34.94h16.12c19.3,0,34.94,15.64,34.94,34.94V146z"/>
<path class="st10" d="M253.11,189L253.11,189c-19.33,0-35-15.67-35-35v-47c0-19.33,15.67-35,35-35h0c19.33,0,35,15.67,35,35v47
	C288.11,173.33,272.44,189,253.11,189z"/>
<path class="st11" d="M243.55,113h-18c-1.93,0-3.5-1.57-3.5-3.5l0,0c0-1.93,1.57-3.5,3.5-3.5h18c1.93,0,3.5,1.57,3.5,3.5l0,0
	C247.05,111.43,245.48,113,243.55,113z"/>
<path class="st9" d="M242.55,111h-18c-1.93,0-3.5-1.57-3.5-3.5l0,0c0-1.93,1.57-3.5,3.5-3.5h18c1.93,0,3.5,1.57,3.5,3.5l0,0
	C246.05,109.43,244.48,111,242.55,111z"/>
<path d="M238.55,122L238.55,122c-0.83,0-1.5-0.67-1.5-1.5v-5c0-0.83,0.67-1.5,1.5-1.5l0,0c0.83,0,1.5,0.67,1.5,1.5v5
	C240.05,121.33,239.38,122,238.55,122z"/>
<path class="st11" d="M262.55,113h18c1.93,0,3.5-1.57,3.5-3.5l0,0c0-1.93-1.57-3.5-3.5-3.5h-18c-1.93,0-3.5,1.57-3.5,3.5l0,0
	C259.05,111.43,260.61,113,262.55,113z"/>
<path class="st9" d="M263.55,111h18c1.93,0,3.5-1.57,3.5-3.5l0,0c0-1.93-1.57-3.5-3.5-3.5h-18c-1.93,0-3.5,1.57-3.5,3.5l0,0
	C260.05,109.43,261.61,111,263.55,111z"/>
<path d="M267.55,122L267.55,122c0.83,0,1.5-0.67,1.5-1.5v-5c0-0.83-0.67-1.5-1.5-1.5l0,0c-0.83,0-1.5,0.67-1.5,1.5v5
	C266.05,121.33,266.72,122,267.55,122z"/>
<path class="st11" d="M281.02,95h-56.09c-1.91,0-3.45-1.55-3.45-3.45V75.45c0-1.91,1.55-3.45,3.45-3.45h56.09
	c1.91,0,3.45,1.55,3.45,3.45v16.09C284.47,93.45,282.93,95,281.02,95z"/>
<path class="st10" d="M221.11,118.59v5.81c0,1.43-1.16,2.59-2.59,2.59h-2.91c-3.04,0-5.5-2.46-5.5-5.5v0c0-3.04,2.46-5.5,5.5-5.5
	h2.91C219.95,116,221.11,117.16,221.11,118.59z"/>
<g>
	<path class="st12" d="M262.22,178h-19c-7.73,0-14-6.27-14-14v-15.13c0-0.48,0.39-0.87,0.87-0.87h45.27c0.48,0,0.87,0.39,0.87,0.87
		V164C276.22,171.73,269.96,178,262.22,178z"/>
	<path class="st13" d="M264.11,175h-23c-5.52,0-10-4.48-10-10v-14.22c0-0.43,0.35-0.78,0.78-0.78h41.45c0.43,0,0.78,0.35,0.78,0.78
		V165C274.11,170.52,269.64,175,264.11,175z"/>
	<path class="st14" d="M262.22,175h-19v-2.5c0-5.25,4.25-9.5,9.5-9.5h0c5.25,0,9.5,4.25,9.5,9.5V175z"/>
	<path class="st15" d="M256.72,158h-8c-2.21,0-4-1.79-4-4v-3.79c0-0.12,0.1-0.21,0.21-0.21h15.57c0.12,0,0.21,0.1,0.21,0.21V154
		C260.72,156.21,258.93,158,256.72,158z"/>
	<path class="st15" d="M265.2,175h-24.94c-0.02,0-0.03-0.01-0.03-0.03V173c0-1.1,0.9-2,2-2h21c1.1,0,2,0.9,2,2v1.97
		C265.22,174.99,265.21,175,265.2,175z"/>
</g>
<path class="st9" d="M282.59,93H223.5c-1.91,0-3.45-1.55-3.45-3.45V73.45c0-1.91,1.55-3.45,3.45-3.45h59.09
	c1.91,0,3.45,1.55,3.45,3.45v16.09C286.05,91.45,284.5,93,282.59,93z"/>
<path class="st10" d="M285.11,118.59v5.81c0,1.43,1.16,2.59,2.59,2.59h2.91c3.04,0,5.5-2.46,5.5-5.5v0c0-3.04-2.46-5.5-5.5-5.5
	h-2.91C286.27,116,285.11,117.16,285.11,118.59z"/>
<g>
	<path class="st6" d="M212.84,123.27L212.84,123.27c-0.27-0.27-0.27-0.7,0-0.96l2.57-2.57c0.27-0.27,0.7-0.27,0.96,0l0,0
		c0.27,0.27,0.27,0.7,0,0.96l-2.57,2.57C213.54,123.53,213.11,123.53,212.84,123.27z"/>
	<path class="st6" d="M216.38,123.27L216.38,123.27c-0.27,0.27-0.7,0.27-0.96,0l-2.57-2.57c-0.27-0.27-0.27-0.7,0-0.96l0,0
		c0.27-0.27,0.7-0.27,0.96,0l2.57,2.57C216.65,122.57,216.65,123,216.38,123.27z"/>
</g>
<g>
	<path class="st6" d="M288.84,123.27L288.84,123.27c-0.27-0.27-0.27-0.7,0-0.96l2.57-2.57c0.27-0.27,0.7-0.27,0.96,0l0,0
		c0.27,0.27,0.27,0.7,0,0.96l-2.57,2.57C289.54,123.53,289.11,123.53,288.84,123.27z"/>
	<path class="st6" d="M292.38,123.27L292.38,123.27c-0.27,0.27-0.7,0.27-0.96,0l-2.57-2.57c-0.27-0.27-0.27-0.7,0-0.96l0,0
		c0.27-0.27,0.7-0.27,0.96,0l2.57,2.57C292.65,122.57,292.65,123,292.38,123.27z"/>
</g>
<path class="st9" d="M231.11,147L231.11,147c-0.55,0-1-0.45-1-1v-5c0-0.55,0.45-1,1-1l0,0c0.55,0,1,0.45,1,1v5
	C232.11,146.55,231.66,147,231.11,147z"/>
<path class="st9" d="M235.11,147L235.11,147c-0.55,0-1-0.45-1-1v-5c0-0.55,0.45-1,1-1l0,0c0.55,0,1,0.45,1,1v5
	C236.11,146.55,235.66,147,235.11,147z"/>
<path class="st9" d="M239.11,147L239.11,147c-0.55,0-1-0.45-1-1v-5c0-0.55,0.45-1,1-1l0,0c0.55,0,1,0.45,1,1v5
	C240.11,146.55,239.66,147,239.11,147z"/>
<path class="st9" d="M243.11,147L243.11,147c-0.55,0-1-0.45-1-1v-5c0-0.55,0.45-1,1-1l0,0c0.55,0,1,0.45,1,1v5
	C244.11,146.55,243.66,147,243.11,147z"/>
<path class="st9" d="M247.11,147L247.11,147c-0.55,0-1-0.45-1-1v-5c0-0.55,0.45-1,1-1l0,0c0.55,0,1,0.45,1,1v5
	C248.11,146.55,247.66,147,247.11,147z"/>
<path class="st9" d="M251.11,147L251.11,147c-0.55,0-1-0.45-1-1v-5c0-0.55,0.45-1,1-1l0,0c0.55,0,1,0.45,1,1v5
	C252.11,146.55,251.66,147,251.11,147z"/>
<path class="st9" d="M255.11,147L255.11,147c-0.55,0-1-0.45-1-1v-5c0-0.55,0.45-1,1-1l0,0c0.55,0,1,0.45,1,1v5
	C256.11,146.55,255.66,147,255.11,147z"/>
<path class="st9" d="M259.11,147L259.11,147c-0.55,0-1-0.45-1-1v-5c0-0.55,0.45-1,1-1h0c0.55,0,1,0.45,1,1v5
	C260.11,146.55,259.66,147,259.11,147z"/>
<path class="st9" d="M263.11,147L263.11,147c-0.55,0-1-0.45-1-1v-5c0-0.55,0.45-1,1-1h0c0.55,0,1,0.45,1,1v5
	C264.11,146.55,263.66,147,263.11,147z"/>
<path class="st12" d="M255.19,144h-4.16c-2.17,0-3.92-1.76-3.92-3.92v-14.16c0-2.17,1.76-3.92,3.92-3.92h4.16
	c2.17,0,3.92,1.76,3.92,3.92v14.16C259.11,142.24,257.36,144,255.19,144z"/>
<path class="st9" d="M267.11,147L267.11,147c-0.55,0-1-0.45-1-1v-5c0-0.55,0.45-1,1-1h0c0.55,0,1,0.45,1,1v5
	C268.11,146.55,267.66,147,267.11,147z"/>
<path class="st9" d="M271.11,147L271.11,147c-0.55,0-1-0.45-1-1v-5c0-0.55,0.45-1,1-1h0c0.55,0,1,0.45,1,1v5
	C272.11,146.55,271.66,147,271.11,147z"/>
<path class="st9" d="M275.11,147L275.11,147c-0.55,0-1-0.45-1-1v-5c0-0.55,0.45-1,1-1h0c0.55,0,1,0.45,1,1v5
	C276.11,146.55,275.66,147,275.11,147z"/>
<path class="st16" d="M250.11,134L250.11,134c-0.55,0-1-0.45-1-1v-5c0-0.55,0.45-1,1-1l0,0c0.55,0,1,0.45,1,1v5
	C251.11,133.55,250.66,134,250.11,134z"/>
<polygon class="st17" points="243.5,237.27 243.3,237.62 243.7,237.62 "/>
<path class="st4" d="M304.95,409H201.9c-12.43,0-22.5-10.07-22.5-22.5v0c0-12.43,10.07-22.5,22.5-22.5h103.06
	c12.43,0,22.5,10.07,22.5,22.5v0C327.45,398.93,317.38,409,304.95,409z"/>
<path class="st18" d="M304.48,399H202.37c-10.93,0-20.08-7.48-22.4-17.5c-0.37,1.61-0.58,3.28-0.58,5v0
	c0,12.43,10.29,22.5,22.97,22.5h102.11c12.69,0,22.97-10.07,22.97-22.5v0c0-1.72-0.2-3.39-0.58-5
	C324.56,391.52,315.41,399,304.48,399z"/>
<path class="st19" d="M259.01,189h-12.02c-17.67,0-31.99-14.32-31.99-31.99V104h76v53.01C291,174.68,276.68,189,259.01,189z"/>
<path class="st10" d="M297,108h-88V67.46c0-6.33,5.13-11.46,11.46-11.46h65.08c6.33,0,11.46,5.13,11.46,11.46V108z"/>
<path class="st7" d="M349.26,262H158.74v-5c0-27.06,21.94-49,49-49h92.52c27.06,0,49,21.94,49,49V262z"/>
<path class="st20" d="M311.86,361H193.84c-2.27,0-4.11-1.84-4.11-4.11V341h126.25v15.89C315.98,359.16,314.14,361,311.86,361z"/>
<path class="st21" d="M299.18,220.19c3.77,1.39,9.71,4.1,15.63,9.37c5.83,5.19,9.2,10.69,11.02,14.25"/>
<path class="st21" d="M206.82,220.19c-3.77,1.39-9.71,4.1-15.63,9.37c-5.83,5.19-9.2,10.69-11.02,14.25"/>
<rect x="256" y="170" class="st14" width="4" height="5"/>
<path class="st22" d="M324.45,351h-0.89c-1.66,0-3-1.34-3-3v-18c0-1.66,1.34-3,3-3h0.89c1.66,0,3,1.34,3,3v18
	C327.45,349.66,326.11,351,324.45,351z"/>
<path class="st22" d="M183.28,298h-0.89c-1.66,0-3-1.34-3-3v-18c0-1.66,1.34-3,3-3h0.89c1.66,0,3,1.34,3,3v18
	C186.28,296.66,184.94,298,183.28,298z"/>
<path class="st10" d="M253,194.99C253,194.99,253,194.99,253,194.99c-1.92,0.28-19.53,2.55-33-11.32
	c-13.47-13.87-11.27-31.99-11-33.97V125h88c0,8.23,0,16.47,0,24.7c0.27,1.97,2.47,20.1-11,33.97
	C272.53,197.54,254.92,195.27,253,194.99z"/>
<circle class="st23" cx="214" cy="137" r="3"/>
<circle class="st23" cx="225.5" cy="137" r="3"/>
<circle class="st23" cx="237" cy="137" r="3"/>
<circle class="st23" cx="268" cy="137" r="3"/>
<circle class="st23" cx="279.5" cy="137" r="3"/>
<circle class="st23" cx="291" cy="137" r="3"/>
<circle class="st23" cx="214" cy="148" r="3"/>
<circle class="st23" cx="225.5" cy="148" r="3"/>
<circle class="st23" cx="237" cy="148" r="3"/>
<circle class="st23" cx="268" cy="148" r="3"/>
<circle class="st23" cx="279.5" cy="148" r="3"/>
<circle class="st23" cx="291" cy="148" r="3"/>
<circle class="st23" cx="214" cy="158" r="3"/>
<circle class="st23" cx="225.5" cy="158" r="3"/>
<circle class="st23" cx="237" cy="158" r="3"/>
<circle class="st23" cx="268" cy="158" r="3"/>
<circle class="st23" cx="279.5" cy="158" r="3"/>
<circle class="st23" cx="291" cy="158" r="3"/>
<circle class="st23" cx="225.5" cy="167" r="3"/>
<circle class="st23" cx="237" cy="167" r="3"/>
<circle class="st23" cx="268" cy="167" r="3"/>
<circle class="st23" cx="279.5" cy="167" r="3"/>
<circle class="st23" cx="225.5" cy="176" r="3"/>
<circle class="st23" cx="237" cy="176" r="3"/>
<circle class="st23" cx="268" cy="176" r="3"/>
<circle class="st23" cx="279.5" cy="176" r="3"/>
<circle class="st23" cx="237" cy="185" r="3"/>
<circle class="st23" cx="268" cy="185" r="3"/>
<path class="st24" d="M347.7,266c-50,0-100,0-150,0c-12.46,0-24.93,0-37.39,0c-4.01,0-7.3-2.71-7.3-6c0-3.31,3.27-6,7.3-6h187.4
	c4.03,0,7.3,2.69,7.3,6S351.73,266,347.7,266z"/>
<path class="st25" d="M267.37,363h-29.03c-2.76,0-5-2.24-5-5V344c0-2.76,2.24-5,5-5h29.03c2.76,0,5,2.24,5,5V358
	C272.36,360.76,270.13,363,267.37,363z"/>
<path class="st7" d="M416,247"/>
<path class="st26" d="M635.1,420.03l61.48-54.25c4.09-3.61,5.39-9.43,3.22-14.43l-32.6-75.24c-2.17-5-7.31-8.04-12.73-7.52
	l-81.63,7.75c-5.42,0.52-9.9,4.46-11.09,9.78l-17.85,80.03c-1.19,5.32,1.19,10.8,5.88,13.57l70.59,41.71
	C625.07,424.2,631.01,423.64,635.1,420.03z"/>
<rect x="609.5" y="273.86" transform="matrix(0.9955 -0.0946 0.0946 0.9955 -26.2012 59.5553)" class="st27" width="11.56" height="64.74"/>
<rect x="578.41" y="301.55" transform="matrix(0.173 -0.9849 0.9849 0.173 154.2241 851.5118)" class="st27" width="11.56" height="64.74"/>
<rect x="592.55" y="339.05" transform="matrix(-0.8234 -0.5675 0.5675 -0.8234 880.2274 1016.7668)" class="st27" width="11.56" height="64.74"/>
<rect x="640.34" y="335.78" transform="matrix(-0.7018 0.7123 -0.7123 -0.7018 1361.8427 166.2621)" class="st27" width="11.56" height="64.74"/>
<rect x="647.34" y="295.79" transform="matrix(0.3426 0.9395 -0.9395 0.3426 737.661 -397.8607)" class="st27" width="11.56" height="64.74"/>
<circle class="st3" cx="619.17" cy="342.51" r="13"/>
<circle class="st1" cx="174" cy="161" r="10"/>
<circle class="st0" cx="170.1" cy="156" r="15"/>
<polygon class="st28" points="174.1,149.07 166.1,149.07 162.1,156 166.1,162.93 174.1,162.93 178.1,156 "/>
<path class="st29" d="M176.85,156.53L176.85,156.53c-0.24,0.14-0.54,0.06-0.68-0.18l-3-5.2c-0.14-0.24-0.06-0.54,0.18-0.68l0,0
	c0.24-0.14,0.54-0.06,0.68,0.18l3,5.2C177.17,156.09,177.09,156.39,176.85,156.53z"/>
<path class="st29" d="M163.35,156.53L163.35,156.53c-0.24-0.14-0.32-0.44-0.18-0.68l3-5.2c0.14-0.24,0.44-0.32,0.68-0.18l0,0
	c0.24,0.14,0.32,0.44,0.18,0.68l-3,5.2C163.89,156.59,163.59,156.67,163.35,156.53z"/>
<path class="st29" d="M173,161.5L173,161.5c0,0.28-0.22,0.5-0.5,0.5h-4.8c-0.28,0-0.5-0.22-0.5-0.5l0,0c0-0.28,0.22-0.5,0.5-0.5h4.8
	C172.78,161,173,161.22,173,161.5z"/>
<path class="st30" d="M208.79,195.89L208.79,195.89c-0.42,0.36-1.05,0.3-1.41-0.12l-10.28-12.26c-0.36-0.42-0.3-1.05,0.12-1.41l0,0
	c0.42-0.36,1.05-0.3,1.41,0.12l10.28,12.26C209.26,194.91,209.21,195.54,208.79,195.89z"/>
<path class="st31" d="M637.83,281.38c1.9-0.25,4.68-0.56,8.05-0.78c8.89-0.58,10.64,0.23,11.73,1.19c0.57,0.5,0.77,0.87,2.86,5.53
	c1.16,2.59,2.16,4.85,2.97,6.68"/>
<path class="st31" d="M567.79,382.05c-1.69-0.9-4.13-2.26-7.01-4.04c-7.57-4.69-8.53-6.37-8.86-7.77c-0.17-0.73-0.12-1.16,0.88-6.16
	c0.56-2.78,1.05-5.2,1.46-7.16"/>
<path class="st32" d="M279,61c2.81-0.08,5.19-0.05,7,0c3.43,0.1,4.33,0.28,5,1c0.78,0.83,0.86,2.23,1,5c0.08,1.68,0.05,3.06,0,4"/>
<path class="st33" d="M214,104.5L214,104.5c-0.83,0-1.5-0.67-1.5-1.5V89c0-0.83,0.67-1.5,1.5-1.5l0,0c0.83,0,1.5,0.67,1.5,1.5v14
	C215.5,103.83,214.83,104.5,214,104.5z"/>
<path class="st22" d="M167.22,395h-0.89c-1.66,0-3-1.34-3-3v-37c0-1.66,1.34-3,3-3h0.89c1.66,0,3,1.34,3,3v37
	C170.22,393.66,168.87,395,167.22,395z"/>
<g>
	<polygon class="st28" points="623.17,336.07 615.17,336.07 611.17,343 615.17,349.93 623.17,349.93 627.17,343 	"/>
	<path class="st29" d="M624.92,343.53L624.92,343.53c-0.24,0.14-0.54,0.06-0.68-0.18l-3-5.2c-0.14-0.24-0.06-0.54,0.18-0.68l0,0
		c0.24-0.14,0.54-0.06,0.68,0.18l3,5.2C625.24,343.09,625.16,343.39,624.92,343.53z"/>
	<path class="st29" d="M613.42,343.53L613.42,343.53c-0.24-0.14-0.32-0.44-0.18-0.68l3-5.2c0.14-0.24,0.44-0.32,0.68-0.18l0,0
		c0.24,0.14,0.32,0.44,0.18,0.68l-3,5.2C613.96,343.59,613.66,343.67,613.42,343.53z"/>
	<path class="st29" d="M622.07,348.5L622.07,348.5c0,0.28-0.22,0.5-0.5,0.5h-4.8c-0.28,0-0.5-0.22-0.5-0.5l0,0
		c0-0.28,0.22-0.5,0.5-0.5h4.8C621.85,348,622.07,348.22,622.07,348.5z"/>
</g>
<circle class="st28" cx="270" cy="119" r="5"/>
<circle class="st28" cx="236" cy="119" r="5"/>
<path class="st24" d="M208,108v16.87c0,1.17,0.85,2.13,1.9,2.13h86.2c1.05,0,1.9-0.95,1.9-2.13V108H208z M243.39,122.53h-23.26
	v-6.71h23.26V122.53z M285.87,122.53h-23.26v-6.71h23.26V122.53z"/>
<path class="st24" d="M257.05,196h-9.09c-2.74,0-4.95-2.22-4.95-4.95V82.95c0-2.74,2.22-4.95,4.95-4.95h9.09
	c2.74,0,4.95,2.22,4.95,4.95v108.09C262,193.78,259.78,196,257.05,196z"/>
<path class="st34" d="M295.5,84h-85c-1.93,0-3.5-1.57-3.5-3.5l0,0c0-1.93,1.57-3.5,3.5-3.5h85c1.93,0,3.5,1.57,3.5,3.5l0,0
	C299,82.43,297.43,84,295.5,84z"/>
<path class="st35" d="M258.5,183L258.5,183c-0.83,0-1.5-0.67-1.5-1.5v-22c0-0.83,0.67-1.5,1.5-1.5l0,0c0.83,0,1.5,0.67,1.5,1.5v22
	C260,182.33,259.33,183,258.5,183z"/>
<path class="st35" d="M247.5,106L247.5,106c-0.83,0-1.5-0.67-1.5-1.5v-7c0-0.83,0.67-1.5,1.5-1.5l0,0c0.83,0,1.5,0.67,1.5,1.5v7
	C249,105.33,248.33,106,247.5,106z"/>
</svg>
