<?xml version="1.0" encoding="utf-8"?>
<!-- Generator: Adobe Illustrator 23.0.3, SVG Export Plug-In . SVG Version: 6.00 Build 0)  -->
<svg version="1.1" id="Calque_1" xmlns="http://www.w3.org/2000/svg" xmlns:xlink="http://www.w3.org/1999/xlink" x="0px" y="0px"
	 viewBox="0 0 500 500" style="enable-background:new 0 0 500 500;" xml:space="preserve">
<style type="text/css">
	.st0{fill:#7D8E9E;}
	.st1{fill:#311A12;}
	.st2{fill:#AABFD0;}
	.st3{fill:#F8C09D;}
	.st4{fill:#E8A78B;}
	.st5{fill:#B6C3CC;}
	.st6{fill:#939FA5;}
	.st7{fill:#66342D;}
	.st8{opacity:0.5;fill:#9A605C;}
	.st9{fill:#C66320;}
	.st10{fill:#87A1B2;}
	.st11{fill:#FEBE40;}
	.st12{fill:none;stroke:#B6C3CC;stroke-width:12;stroke-miterlimit:10;}
	.st13{opacity:0.8;fill:#7D8E9E;}
	.st14{fill:#5B6571;}
	.st15{opacity:0.8;fill:#8BA1AF;}
	.st16{opacity:0.8;fill:none;stroke:#D0E2EE;stroke-width:3;stroke-linecap:round;stroke-miterlimit:10;}
	.st17{fill:none;stroke:#D0E2EE;stroke-width:4;stroke-linecap:round;stroke-miterlimit:10;}
	.st18{fill:#C0D2DD;}
	.st19{fill:#92A6B7;}
	.st20{fill:#EF937E;}
	.st21{fill:#6F1E49;}
	.st22{fill:#DC166D;}
	.st23{fill:#FFFFFF;}
	.st24{opacity:0.8;fill:#FFFFFF;}
	.st25{fill:#D0E2EE;}
</style>
<path class="st0" d="M189,423L189,423c8.84,0,16-7.16,16-16V269h-32v138C173,415.84,180.16,423,189,423z"/>
<path class="st0" d="M317,423L317,423c-8.84,0-16-7.16-16-16V269h32v138C333,415.84,325.84,423,317,423z"/>
<path class="st0" d="M173,275h53v-59h0c-29.27,0-53,23.73-53,53V275z"/>
<path class="st0" d="M333,274h-53v-59h0c29.27,0,53,23.73,53,53V274z"/>
<path class="st1" d="M305.62,359H200.38c-1.31,0-2.38-1.07-2.38-2.38v-15.24c0-1.31,1.07-2.38,2.38-2.38h105.24
	c1.31,0,2.38,1.07,2.38,2.38v15.24C308,357.93,306.93,359,305.62,359z"/>
<path class="st2" d="M307.02,379h-108V264c0-29.82,24.18-54,54-54h0c29.82,0,54,24.18,54,54V379z"/>
<rect x="225.81" y="161.5" class="st3" width="54.48" height="76"/>
<path class="st4" d="M253.05,204L253.05,204c-15.04,0-27.24-12.2-27.24-27.24V128h54.48v48.76C280.29,191.8,268.09,204,253.05,204z"
	/>
<path class="st5" d="M267.75,234h-29.48c-7.85,0-14.21-6.36-14.21-14.21v-64.07c0-7.85,6.36-14.21,14.21-14.21h29.48
	c7.85,0,14.21,6.36,14.21,14.21v64.07C281.97,227.64,275.6,234,267.75,234z"/>
<path class="st6" d="M266.92,202h-27.81c-8.31,0-15.05-6.74-15.05-15.05v-53.91c0-8.31,6.74-15.05,15.05-15.05h27.81
	c8.31,0,15.05,6.74,15.05,15.05v53.91C281.97,195.26,275.23,202,266.92,202z"/>
<path class="st7" d="M295.97,146h-86V92.94c0-19.3,15.64-34.94,34.94-34.94h16.12c19.3,0,34.94,15.64,34.94,34.94V146z"/>
<path class="st3" d="M253.11,189L253.11,189c-19.33,0-35-15.67-35-35v-47c0-19.33,15.67-35,35-35h0c19.33,0,35,15.67,35,35v47
	C288.11,173.33,272.44,189,253.11,189z"/>
<path class="st8" d="M224.29,102.49l17.73,3.13c1.9,0.34,3.17,2.15,2.84,4.05v0c-0.34,1.9-2.15,3.17-4.05,2.84l-17.73-3.13
	c-1.9-0.34-3.17-2.15-2.84-4.05v0C220.57,103.43,222.39,102.15,224.29,102.49z"/>
<path d="M243.55,122L243.55,122c-0.83,0-1.5-0.67-1.5-1.5v-5c0-0.83,0.67-1.5,1.5-1.5l0,0c0.83,0,1.5,0.67,1.5,1.5v5
	C245.05,121.33,244.38,122,243.55,122z"/>
<path class="st8" d="M264.29,112.51l17.73-3.13c1.9-0.34,3.17-2.15,2.84-4.05v0c-0.34-1.9-2.15-3.17-4.05-2.84l-17.73,3.13
	c-1.9,0.34-3.17,2.15-2.84,4.05v0C260.57,111.57,262.39,112.85,264.29,112.51z"/>
<path d="M262.55,122L262.55,122c0.83,0,1.5-0.67,1.5-1.5v-5c0-0.83-0.67-1.5-1.5-1.5l0,0c-0.83,0-1.5,0.67-1.5,1.5v5
	C261.05,121.33,261.72,122,262.55,122z"/>
<path class="st8" d="M281.02,95h-56.09c-1.91,0-3.45-1.55-3.45-3.45V75.45c0-1.91,1.55-3.45,3.45-3.45h56.09
	c1.91,0,3.45,1.55,3.45,3.45v16.09C284.47,93.45,282.93,95,281.02,95z"/>
<path class="st3" d="M221.11,118.59v5.81c0,1.43-1.16,2.59-2.59,2.59h-2.91c-3.04,0-5.5-2.46-5.5-5.5v0c0-3.04,2.46-5.5,5.5-5.5
	h2.91C219.95,116,221.11,117.16,221.11,118.59z"/>
<path class="st7" d="M282.59,93H223.5c-1.91,0-3.45-1.55-3.45-3.45V73.45c0-1.91,1.55-3.45,3.45-3.45h59.09
	c1.91,0,3.45,1.55,3.45,3.45v16.09C286.05,91.45,284.5,93,282.59,93z"/>
<path class="st3" d="M285.11,118.59v5.81c0,1.43,1.16,2.59,2.59,2.59h2.91c3.04,0,5.5-2.46,5.5-5.5v0c0-3.04-2.46-5.5-5.5-5.5h-2.91
	C286.27,116,285.11,117.16,285.11,118.59z"/>
<g>
	<path class="st4" d="M212.84,123.27L212.84,123.27c-0.27-0.27-0.27-0.7,0-0.96l2.57-2.57c0.27-0.27,0.7-0.27,0.96,0l0,0
		c0.27,0.27,0.27,0.7,0,0.96l-2.57,2.57C213.54,123.53,213.11,123.53,212.84,123.27z"/>
	<path class="st4" d="M216.38,123.27L216.38,123.27c-0.27,0.27-0.7,0.27-0.96,0l-2.57-2.57c-0.27-0.27-0.27-0.7,0-0.96l0,0
		c0.27-0.27,0.7-0.27,0.96,0l2.57,2.57C216.65,122.57,216.65,123,216.38,123.27z"/>
</g>
<g>
	<path class="st4" d="M288.84,123.27L288.84,123.27c-0.27-0.27-0.27-0.7,0-0.96l2.57-2.57c0.27-0.27,0.7-0.27,0.96,0l0,0
		c0.27,0.27,0.27,0.7,0,0.96l-2.57,2.57C289.54,123.53,289.11,123.53,288.84,123.27z"/>
	<path class="st4" d="M292.38,123.27L292.38,123.27c-0.27,0.27-0.7,0.27-0.96,0l-2.57-2.57c-0.27-0.27-0.27-0.7,0-0.96l0,0
		c0.27-0.27,0.7-0.27,0.96,0l2.57,2.57C292.65,122.57,292.65,123,292.38,123.27z"/>
</g>
<polygon class="st9" points="243.5,237.27 243.3,237.62 243.7,237.62 "/>
<path class="st2" d="M295.5,409h-84c-12.43,0-22.5-10.07-22.5-22.5v0c0-12.43,10.07-22.5,22.5-22.5h84c12.43,0,22.5,10.07,22.5,22.5
	v0C318,398.93,307.93,409,295.5,409z"/>
<path class="st10" d="M297.98,399h-88.97c-9.53,0-17.49-7.48-19.52-17.5c-0.32,1.61-0.5,3.28-0.5,5v0c0,12.43,8.96,22.5,20.02,22.5
	h88.97c11.06,0,20.02-10.07,20.02-22.5v0c0-1.72-0.18-3.39-0.5-5C315.47,391.52,307.51,399,297.98,399z"/>
<path class="st11" d="M225.38,101.49l17.73,3.13c1.9,0.34,3.17,2.15,2.84,4.05v0c-0.34,1.9-2.15,3.17-4.05,2.84l-17.73-3.13
	c-1.9-0.34-3.17-2.15-2.84-4.05v0C221.66,102.43,223.47,101.15,225.38,101.49z"/>
<path class="st11" d="M263.38,111.51l17.73-3.13c1.9-0.34,3.17-2.15,2.84-4.05v0c-0.34-1.9-2.15-3.17-4.05-2.84l-17.73,3.13
	c-1.9,0.34-3.17,2.15-2.84,4.05v0C259.66,110.57,261.47,111.85,263.38,111.51z"/>
<path class="st11" d="M253,194L253,194c-19.33,0-35-15.67-35-35v-23h70v23C288,178.33,272.33,194,253,194z"/>
<path class="st12" d="M259.01,189h-12.02c-17.67,0-31.99-14.32-31.99-31.99V104h76v53.01C291,174.68,276.68,189,259.01,189z"/>
<path class="st13" d="M294.33,106h-82.65c-1.48,0-2.67-1.2-2.67-2.67V84.66C209,69.93,220.93,58,235.66,58h34.69
	C285.07,58,297,69.93,297,84.66v18.67C297,104.8,295.8,106,294.33,106z"/>
<path class="st2" d="M297,104h-88V79.98C209,66.74,219.74,56,232.98,56h40.03C286.26,56,297,66.74,297,79.98V104z"/>
<path class="st5" d="M333,262H174v0c0-27.06,21.94-49,49-49h61C311.06,213,333,234.94,333,262L333,262z"/>
<path class="st14" d="M332,264H174.03c-3.87,0-7-3.13-7-7l0,0c0-3.87,3.13-7,7-7H332c3.87,0,7,3.13,7,7l0,0
	C339,260.87,335.87,264,332,264z"/>
<path class="st7" d="M303.89,361H202.11c-2.27,0-4.11-1.84-4.11-4.11V341h110v15.89C308,359.16,306.16,361,303.89,361z"/>
<circle class="st15" cx="253" cy="71" r="7"/>
<path class="st16" d="M271,61c1.06-0.1,9.77-0.75,16,6c4.83,5.23,5,11.48,5,13"/>
<path class="st17" d="M297.18,222.19c3.77,1.39,9.71,4.1,15.63,9.37c5.83,5.19,9.2,10.69,11.02,14.25"/>
<path class="st17" d="M210.82,222.19c-3.77,1.39-9.71,4.1-15.63,9.37c-5.83,5.19-9.2,10.69-11.02,14.25"/>
<path class="st18" d="M208,334L208,334c-1.66,0-3-1.34-3-3v-43c0-1.66,1.34-3,3-3l0,0c1.66,0,3,1.34,3,3v43
	C211,332.66,209.66,334,208,334z"/>
<path class="st19" d="M326,292L326,292c-1.66,0-3-1.34-3-3v-18c0-1.66,1.34-3,3-3l0,0c1.66,0,3,1.34,3,3v18
	C329,290.66,327.66,292,326,292z"/>
<path class="st19" d="M181,373L181,373c-1.66,0-3-1.34-3-3v-18c0-1.66,1.34-3,3-3l0,0c1.66,0,3,1.34,3,3v18
	C184,371.66,182.66,373,181,373z"/>
<path class="st20" d="M262.22,180h-19c-7.73,0-14-6.27-14-14v-15.13c0-0.48,0.39-0.87,0.87-0.87h45.27c0.48,0,0.87,0.39,0.87,0.87
	V166C276.22,173.73,269.96,180,262.22,180z"/>
<path class="st21" d="M264.11,177h-23c-5.52,0-10-4.48-10-10v-14.22c0-0.43,0.35-0.78,0.78-0.78h41.45c0.43,0,0.78,0.35,0.78,0.78
	V167C274.11,172.52,269.64,177,264.11,177z"/>
<path class="st22" d="M262.22,177h-19v-2.5c0-5.25,4.25-9.5,9.5-9.5h0c5.25,0,9.5,4.25,9.5,9.5V177z"/>
<path class="st23" d="M265.2,177h-24.94c-0.02,0-0.03-0.01-0.03-0.03V175c0-1.1,0.9-2,2-2h21c1.1,0,2,0.9,2,2v1.97
	C265.22,176.99,265.21,177,265.2,177z"/>
<path class="st23" d="M256.81,160L256.81,160c-2.21,0-4-1.79-4-4v-3.79c0-0.12,0.1-0.21,0.21-0.21h7.57c0.12,0,0.21,0.1,0.21,0.21
	V156C260.81,158.21,259.02,160,256.81,160z"/>
<path class="st20" d="M255.19,144h-4.16c-2.17,0-3.92-1.76-3.92-3.92v-14.16c0-2.17,1.76-3.92,3.92-3.92h4.16
	c2.17,0,3.92,1.76,3.92,3.92v14.16C259.11,142.24,257.36,144,255.19,144z"/>
<path class="st24" d="M250.11,134L250.11,134c-0.55,0-1-0.45-1-1v-5c0-0.55,0.45-1,1-1l0,0c0.55,0,1,0.45,1,1v5
	C251.11,133.55,250.66,134,250.11,134z"/>
<rect x="247.11" y="86" class="st2" width="12" height="50"/>
<path class="st25" d="M250,132L250,132c-1.1,0-2-0.9-2-2v-11c0-1.1,0.9-2,2-2l0,0c1.1,0,2,0.9,2,2v11C252,131.1,251.1,132,250,132z"
	/>
<circle class="st15" cx="253" cy="89" r="7"/>
</svg>
