<?xml version="1.0" encoding="utf-8"?>
<!-- Generator: Adobe Illustrator 23.0.3, SVG Export Plug-In . SVG Version: 6.00 Build 0)  -->
<svg version="1.1" id="Calque_1" xmlns="http://www.w3.org/2000/svg" xmlns:xlink="http://www.w3.org/1999/xlink" x="0px" y="0px"
	 viewBox="0 0 500 500" style="enable-background:new 0 0 500 500;" xml:space="preserve">
<style type="text/css">
	.st0{fill:#F8C09D;}
	.st1{fill:#EF937E;}
	.st2{fill:#E8A78B;}
	.st3{fill:#66342D;}
	.st4{opacity:0.5;fill:#9A605C;}
	.st5{fill:#6F1E49;}
	.st6{opacity:0.8;fill:#FFFFFF;}
	.st7{fill:#C66320;}
	.st8{fill:#FFF79C;}
	.st9{fill:#EC7523;}
	.st10{opacity:0.8;fill:#F2985A;}
	.st11{fill:#C6601A;}
	.st12{opacity:0.8;fill:#F9F2BD;}
	.st13{opacity:0.72;fill:#EF9152;}
	.st14{opacity:0.6;fill:none;stroke:#E88949;stroke-width:4;stroke-linecap:round;stroke-miterlimit:10;}
	.st15{fill:none;stroke:#9A605C;stroke-width:3;stroke-linecap:round;stroke-miterlimit:10;}
	.st16{fill:#432355;}
	.st17{fill:#FFFFFF;}
	.st18{fill:#DC166D;}
</style>
<path class="st0" d="M307,390H199V253c0-29.82,24.18-54,54-54h0c29.82,0,54,24.18,54,54V390z"/>
<path class="st1" d="M188,412L188,412c8.84,0,16-7.16,16-16V258h-32v138C172,404.84,179.16,412,188,412z"/>
<rect x="224.89" y="150.5" class="st0" width="54.48" height="76"/>
<path class="st2" d="M252.13,193L252.13,193c-15.04,0-27.24-12.2-27.24-27.24V117h54.48v48.76C279.37,180.8,267.17,193,252.13,193z"
	/>
<path class="st3" d="M295.05,135h-86V81.94c0-19.3,15.64-34.94,34.94-34.94h16.12c19.3,0,34.94,15.64,34.94,34.94V135z"/>
<path class="st0" d="M252.05,178L252.05,178c-19.33,0-35-15.67-35-35V96c0-19.33,15.67-35,35-35h0c19.33,0,35,15.67,35,35v47
	C287.05,162.33,271.38,178,252.05,178z"/>
<g>
	<path class="st4" d="M242.63,102h-18c-1.93,0-3.5-1.57-3.5-3.5l0,0c0-1.93,1.57-3.5,3.5-3.5h18c1.93,0,3.5,1.57,3.5,3.5l0,0
		C246.13,100.43,244.56,102,242.63,102z"/>
	<path class="st3" d="M241.63,100h-18c-1.93,0-3.5-1.57-3.5-3.5l0,0c0-1.93,1.57-3.5,3.5-3.5h18c1.93,0,3.5,1.57,3.5,3.5l0,0
		C245.13,98.43,243.56,100,241.63,100z"/>
	<path d="M242.63,111L242.63,111c-0.83,0-1.5-0.67-1.5-1.5v-5c0-0.83,0.67-1.5,1.5-1.5l0,0c0.83,0,1.5,0.67,1.5,1.5v5
		C244.13,110.33,243.46,111,242.63,111z"/>
	<path class="st4" d="M261.63,102h18c1.93,0,3.5-1.57,3.5-3.5l0,0c0-1.93-1.57-3.5-3.5-3.5h-18c-1.93,0-3.5,1.57-3.5,3.5l0,0
		C258.13,100.43,259.7,102,261.63,102z"/>
	<path class="st3" d="M262.63,100h18c1.93,0,3.5-1.57,3.5-3.5l0,0c0-1.93-1.57-3.5-3.5-3.5h-18c-1.93,0-3.5,1.57-3.5,3.5l0,0
		C259.13,98.43,260.7,100,262.63,100z"/>
	<path d="M261.63,111L261.63,111c0.83,0,1.5-0.67,1.5-1.5v-5c0-0.83-0.67-1.5-1.5-1.5l0,0c-0.83,0-1.5,0.67-1.5,1.5v5
		C260.13,110.33,260.8,111,261.63,111z"/>
</g>
<path class="st4" d="M280.1,84h-56.09c-1.91,0-3.45-1.55-3.45-3.45V64.45c0-1.91,1.55-3.45,3.45-3.45h56.09
	c1.91,0,3.45,1.55,3.45,3.45v16.09C283.55,82.45,282.01,84,280.1,84z"/>
<path class="st0" d="M220.2,107.59v5.81c0,1.43-1.16,2.59-2.59,2.59h-2.91c-3.04,0-5.5-2.46-5.5-5.5v0c0-3.04,2.46-5.5,5.5-5.5h2.91
	C219.03,105,220.2,106.16,220.2,107.59z"/>
<path class="st1" d="M261.31,167h-19c-7.73,0-14-6.27-14-14v-15.13c0-0.48,0.39-0.87,0.87-0.87h45.27c0.48,0,0.87,0.39,0.87,0.87
	V153C275.31,160.73,269.04,167,261.31,167z"/>
<path class="st5" d="M263.2,164h-23c-5.52,0-10-4.48-10-10v-14.22c0-0.43,0.35-0.78,0.78-0.78h41.45c0.43,0,0.78,0.35,0.78,0.78V154
	C273.2,159.52,268.72,164,263.2,164z"/>
<path class="st3" d="M281.68,82h-59.09c-1.91,0-3.45-1.55-3.45-3.45V62.45c0-1.91,1.55-3.45,3.45-3.45h59.09
	c1.91,0,3.45,1.55,3.45,3.45v16.09C285.13,80.45,283.59,82,281.68,82z"/>
<path class="st0" d="M284.2,107.59v5.81c0,1.43,1.16,2.59,2.59,2.59h2.91c3.04,0,5.5-2.46,5.5-5.5v0c0-3.04-2.46-5.5-5.5-5.5h-2.91
	C285.36,105,284.2,106.16,284.2,107.59z"/>
<g>
	<path class="st2" d="M211.93,112.27L211.93,112.27c-0.27-0.27-0.27-0.7,0-0.96l2.57-2.57c0.27-0.27,0.7-0.27,0.96,0l0,0
		c0.27,0.27,0.27,0.7,0,0.96l-2.57,2.57C212.63,112.53,212.19,112.53,211.93,112.27z"/>
	<path class="st2" d="M215.46,112.27L215.46,112.27c-0.27,0.27-0.7,0.27-0.96,0l-2.57-2.57c-0.27-0.27-0.27-0.7,0-0.96l0,0
		c0.27-0.27,0.7-0.27,0.96,0l2.57,2.57C215.73,111.57,215.73,112,215.46,112.27z"/>
</g>
<g>
	<path class="st2" d="M287.93,112.27L287.93,112.27c-0.27-0.27-0.27-0.7,0-0.96l2.57-2.57c0.27-0.27,0.7-0.27,0.96,0l0,0
		c0.27,0.27,0.27,0.7,0,0.96l-2.57,2.57C288.63,112.53,288.19,112.53,287.93,112.27z"/>
	<path class="st2" d="M291.46,112.27L291.46,112.27c-0.27,0.27-0.7,0.27-0.96,0l-2.57-2.57c-0.27-0.27-0.27-0.7,0-0.96h0
		c0.27-0.27,0.7-0.27,0.96,0l2.57,2.57C291.73,111.57,291.73,112,291.46,112.27z"/>
</g>
<path class="st3" d="M230.2,136L230.2,136c-0.55,0-1-0.45-1-1v-5c0-0.55,0.45-1,1-1l0,0c0.55,0,1,0.45,1,1v5
	C231.2,135.55,230.75,136,230.2,136z"/>
<path class="st3" d="M234.2,136L234.2,136c-0.55,0-1-0.45-1-1v-5c0-0.55,0.45-1,1-1l0,0c0.55,0,1,0.45,1,1v5
	C235.2,135.55,234.75,136,234.2,136z"/>
<path class="st3" d="M238.2,136L238.2,136c-0.55,0-1-0.45-1-1v-5c0-0.55,0.45-1,1-1l0,0c0.55,0,1,0.45,1,1v5
	C239.2,135.55,238.75,136,238.2,136z"/>
<path class="st3" d="M242.2,136L242.2,136c-0.55,0-1-0.45-1-1v-5c0-0.55,0.45-1,1-1l0,0c0.55,0,1,0.45,1,1v5
	C243.2,135.55,242.75,136,242.2,136z"/>
<path class="st3" d="M246.2,136L246.2,136c-0.55,0-1-0.45-1-1v-5c0-0.55,0.45-1,1-1l0,0c0.55,0,1,0.45,1,1v5
	C247.2,135.55,246.75,136,246.2,136z"/>
<path class="st3" d="M250.2,136L250.2,136c-0.55,0-1-0.45-1-1v-5c0-0.55,0.45-1,1-1l0,0c0.55,0,1,0.45,1,1v5
	C251.2,135.55,250.75,136,250.2,136z"/>
<path class="st3" d="M254.2,136L254.2,136c-0.55,0-1-0.45-1-1v-5c0-0.55,0.45-1,1-1l0,0c0.55,0,1,0.45,1,1v5
	C255.2,135.55,254.75,136,254.2,136z"/>
<path class="st3" d="M258.2,136L258.2,136c-0.55,0-1-0.45-1-1v-5c0-0.55,0.45-1,1-1l0,0c0.55,0,1,0.45,1,1v5
	C259.2,135.55,258.75,136,258.2,136z"/>
<path class="st3" d="M262.2,136L262.2,136c-0.55,0-1-0.45-1-1v-5c0-0.55,0.45-1,1-1l0,0c0.55,0,1,0.45,1,1v5
	C263.2,135.55,262.75,136,262.2,136z"/>
<path class="st1" d="M254.27,133h-4.16c-2.17,0-3.92-1.76-3.92-3.92v-14.16c0-2.17,1.76-3.92,3.92-3.92h4.16
	c2.17,0,3.92,1.76,3.92,3.92v14.16C258.2,131.24,256.44,133,254.27,133z"/>
<path class="st3" d="M266.2,136L266.2,136c-0.55,0-1-0.45-1-1v-5c0-0.55,0.45-1,1-1l0,0c0.55,0,1,0.45,1,1v5
	C267.2,135.55,266.75,136,266.2,136z"/>
<path class="st3" d="M270.2,136L270.2,136c-0.55,0-1-0.45-1-1v-5c0-0.55,0.45-1,1-1l0,0c0.55,0,1,0.45,1,1v5
	C271.2,135.55,270.75,136,270.2,136z"/>
<path class="st3" d="M274.2,136L274.2,136c-0.55,0-1-0.45-1-1v-5c0-0.55,0.45-1,1-1l0,0c0.55,0,1,0.45,1,1v5
	C275.2,135.55,274.75,136,274.2,136z"/>
<path class="st6" d="M249.2,123L249.2,123c-0.55,0-1-0.45-1-1v-5c0-0.55,0.45-1,1-1l0,0c0.55,0,1,0.45,1,1v5
	C250.2,122.55,249.75,123,249.2,123z"/>
<path class="st1" d="M316,412L316,412c-8.84,0-16-7.16-16-16V258h32v138C332,404.84,324.84,412,316,412z"/>
<polygon class="st7" points="242.5,226.27 242.3,226.62 242.7,226.62 "/>
<polygon class="st0" points="251.87,237.67 271.16,204 232.58,204 "/>
<rect x="167" y="258" transform="matrix(-1 9.051304e-12 -9.051304e-12 -1 376 641)" class="st8" width="42" height="125"/>
<rect x="298" y="259" transform="matrix(-1 9.051304e-12 -9.051304e-12 -1 638 643)" class="st8" width="42" height="125"/>
<circle class="st8" cx="335" cy="384" r="5"/>
<circle class="st8" cx="327" cy="384" r="5"/>
<circle class="st8" cx="319" cy="384" r="5"/>
<circle class="st8" cx="311" cy="384" r="5"/>
<circle class="st8" cx="196" cy="383" r="5"/>
<circle class="st8" cx="188" cy="383" r="5"/>
<circle class="st8" cx="180" cy="383" r="5"/>
<circle class="st8" cx="172" cy="383" r="5"/>
<circle class="st8" cx="222" cy="217" r="5"/>
<circle class="st8" cx="279" cy="217" r="5"/>
<path class="st9" d="M294.5,397h-84c-12.43,0-22.5-10.07-22.5-22.5v0c0-12.43,10.07-22.5,22.5-22.5h84c12.43,0,22.5,10.07,22.5,22.5
	v0C317,386.93,306.93,397,294.5,397z"/>
<path class="st7" d="M296.98,388h-88.97c-9.53,0-17.49-7.48-19.52-17.5c-0.32,1.61-0.5,3.28-0.5,5v0c0,12.43,8.96,22.5,20.02,22.5
	h88.97c11.06,0,20.02-10.07,20.02-22.5v0c0-1.72-0.18-3.39-0.5-5C314.47,380.52,306.51,388,296.98,388z"/>
<circle class="st2" cx="246" cy="214" r="5"/>
<circle class="st2" cx="238" cy="214" r="5"/>
<circle class="st2" cx="230" cy="214" r="5"/>
<circle class="st2" cx="271" cy="214" r="5"/>
<circle class="st2" cx="263" cy="214" r="5"/>
<circle class="st2" cx="255" cy="214" r="5"/>
<rect x="217" y="217" class="st8" width="68" height="32"/>
<circle class="st8" cx="246" cy="217" r="5"/>
<circle class="st8" cx="238" cy="217" r="5"/>
<circle class="st8" cx="230" cy="217" r="5"/>
<circle class="st8" cx="271" cy="217" r="5"/>
<circle class="st8" cx="263" cy="217" r="5"/>
<circle class="st8" cx="255" cy="217" r="5"/>
<path class="st10" d="M299,298L299,298c-2.21,0-4-1.79-4-4v-41c0-2.21,1.79-4,4-4l0,0c2.21,0,4,1.79,4,4v41
	C303,296.21,301.21,298,299,298z"/>
<path class="st10" d="M204,356L204,356c-2.21,0-4-1.79-4-4v-17c0-2.21,1.79-4,4-4l0,0c2.21,0,4,1.79,4,4v17
	C208,354.21,206.21,356,204,356z"/>
<path class="st11" d="M167,264h58v-59h-5c-29.27,0-53,23.73-53,53V264z"/>
<path class="st11" d="M340,264h-61v-59h8c29.27,0,53,23.73,53,53V264z"/>
<path class="st12" d="M333.5,372L333.5,372c-1.76,0-3.18-1.42-3.18-3.18v-49.64c0-1.76,1.42-3.18,3.18-3.18l0,0
	c1.76,0,3.18,1.42,3.18,3.18v49.64C336.68,370.58,335.26,372,333.5,372z"/>
<path class="st12" d="M188.5,291L188.5,291c-1.76,0-3.18-1.42-3.18-3.18v-18.64c0-1.76,1.42-3.18,3.18-3.18l0,0
	c1.76,0,3.18,1.42,3.18,3.18v18.64C191.68,289.58,190.26,291,188.5,291z"/>
<path class="st13" d="M292,381.5L292,381.5c0,1.76-1.42,3.18-3.18,3.18h-25.64c-1.76,0-3.18-1.42-3.18-3.18l0,0
	c0-1.76,1.42-3.18,3.18-3.18h25.64C290.58,378.32,292,379.74,292,381.5z"/>
<path class="st14" d="M320,226c0.16,0.1,0.32,0.21,0.48,0.31c5.05,3.4,11.94,11.3,12.52,31.79"/>
<path class="st9" d="M279,205c-8.86,13.94-17.72,27.88-26.58,41.82c-9.14-13.94-18.28-27.88-27.42-41.82
	c-3.83,1.42-14.14,5.81-21.85,16.89c-7.11,10.22-8.05,20.45-8.2,24.59l0.28,120.65l114.93-0.27l-0.28-120.65
	c-0.15-4.07-1.07-14.37-8.32-24.56C293.55,210.39,282.75,206.25,279,205z"/>
<path class="st13" d="M297.5,318L297.5,318c-1.76,0-3.18-1.42-3.18-3.18v-49.64c0-1.76,1.42-3.18,3.18-3.18l0,0
	c1.76,0,3.18,1.42,3.18,3.18v49.64C300.68,316.58,299.26,318,297.5,318z"/>
<path class="st13" d="M203.5,359L203.5,359c-1.76,0-3.18-1.42-3.18-3.18v-12.64c0-1.76,1.42-3.18,3.18-3.18l0,0
	c1.76,0,3.18,1.42,3.18,3.18v12.64C206.68,357.58,205.26,359,203.5,359z"/>
<path class="st14" d="M188,226c-0.16,0.1-0.32,0.21-0.48,0.31c-5.05,3.4-11.94,11.3-12.52,31.79"/>
<path class="st15" d="M263.04,51.81c3.31,0.62,11.67,2.67,18.48,10.02c3.47,3.74,5.38,7.62,6.44,10.37"/>
<path class="st3" d="M254.12,45.15c1.27-4.81,6.2-7.67,11-6.4c2.39,0.63,4.3,2.17,5.46,4.14c-0.45-3.52-2.98-6.59-6.62-7.55
	c-4.81-1.27-9.73,1.59-11,6.4c-0.64,2.42-0.23,4.86,0.94,6.86C253.75,47.48,253.81,46.31,254.12,45.15z"/>
<g>
	<ellipse class="st16" cx="252" cy="153" rx="8" ry="6"/>
</g>
<path class="st17" d="M255.81,147h-8c-2.21,0-4-1.79-4-4v-3.79c0-0.12,0.1-0.21,0.21-0.21h15.57c0.12,0,0.21,0.1,0.21,0.21V143
	C259.81,145.21,258.02,147,255.81,147z"/>
<path class="st18" d="M261.31,164h-19v-2.5c0-5.25,4.25-9.5,9.5-9.5h0c5.25,0,9.5,4.25,9.5,9.5V164z"/>
<path class="st17" d="M264.28,164h-24.94c-0.02,0-0.03-0.01-0.03-0.03V162c0-1.1,0.9-2,2-2h21c1.1,0,2,0.9,2,2v1.97
	C264.31,163.99,264.29,164,264.28,164z"/>
</svg>
