<?xml version="1.0" encoding="utf-8"?>
<!-- Generator: Adobe Illustrator 23.0.3, SVG Export Plug-In . SVG Version: 6.00 Build 0)  -->
<svg version="1.1" id="Calque_1" xmlns="http://www.w3.org/2000/svg" xmlns:xlink="http://www.w3.org/1999/xlink" x="0px" y="0px"
	 viewBox="0 0 500 500" style="enable-background:new 0 0 500 500;" xml:space="preserve">
<style type="text/css">
	.st0{fill:url(#SVGID_1_);}
	.st1{fill:url(#SVGID_2_);}
	.st2{fill:url(#SVGID_3_);}
	.st3{fill:url(#SVGID_4_);}
	.st4{fill:none;stroke:#FFFFFF;stroke-width:6;stroke-miterlimit:10;}
	.st5{fill:#F8C09D;}
	.st6{fill:#EF937E;}
	.st7{fill:#EA676C;}
	.st8{fill:#E8A78B;}
	.st9{fill:#FED883;}
	.st10{fill:#6F1E49;}
	.st11{fill:#432355;}
	.st12{fill:#DC166D;}
	.st13{fill:#FFFFFF;}
	.st14{fill:#7D8E9E;}
	.st15{fill:#3A4D5C;}
	.st16{fill:#9A605C;}
	.st17{fill:#143441;}
	.st18{fill:#66342D;}
	.st19{fill:url(#SVGID_5_);}
	.st20{fill:url(#SVGID_6_);}
	.st21{fill:url(#SVGID_7_);}
	.st22{fill:url(#SVGID_8_);}
	.st23{fill:url(#SVGID_9_);}
	.st24{fill:none;stroke:#FFFFFF;stroke-width:3;stroke-miterlimit:10;}
	.st25{fill:#FFA829;stroke:#FEBE40;stroke-miterlimit:10;}
	.st26{fill:#FEBE40;}
	.st27{fill:none;stroke:#F9C973;stroke-width:2;stroke-linecap:round;stroke-miterlimit:10;}
	.st28{fill:#F9C973;}
	.st29{fill:#FFA829;}
	.st30{fill:#F9CEB7;}
	.st31{fill:#638196;}
	.st32{fill:#9DB0BF;}
	.st33{fill:#F7DFAD;}
</style>
<g>
	<linearGradient id="SVGID_1_" gradientUnits="userSpaceOnUse" x1="251.8475" y1="369.7301" x2="251.8475" y2="455.3835">
		<stop  offset="0" style="stop-color:#ED213A"/>
		<stop  offset="1" style="stop-color:#93291E"/>
	</linearGradient>
	<path class="st0" d="M368.86,395.4c-2.62,6.81-8.24,12.67-16.07,17.62c-5.38,3.4-11.81,6.38-19.03,8.91h-0.01
		c-44.82,15.72-120.05,14.76-164.51-2.01c-6.58-2.48-12.5-5.31-17.53-8.49c-8.5-5.35-14.51-11.68-17.09-18.96
		c-4.38-12.39,3.13-21.96,17.24-53.56c0.6-1.35,1.2-2.7,1.78-4.04c0.36,1.79,0.78,3.57,1.25,5.34c2.27,8.56,5.72,16.8,10.28,24.51
		c8.53,14.39,20.95,26.87,36.81,35.78c48.09,27,109.57,10.97,137.33-35.8c0-0.01,0.01-0.01,0.01-0.02
		c4.64-7.83,8.05-16.04,10.28-24.39c0.47-1.77,0.89-3.56,1.26-5.34c0.96,2.44,1.95,4.91,2.97,7.39
		C366.5,373.29,373.59,383.13,368.86,395.4z"/>
	<linearGradient id="SVGID_2_" gradientUnits="userSpaceOnUse" x1="252.1366" y1="315.7249" x2="252.9681" y2="469.5486">
		<stop  offset="0.1728" style="stop-color:#ED213A"/>
		<stop  offset="1" style="stop-color:#93291E"/>
	</linearGradient>
	<path class="st1" d="M350.85,334.94c-0.36,1.78-0.78,3.57-1.26,5.34c-2.23,8.35-5.64,16.56-10.28,24.39c0,0.01-0.01,0.01-0.01,0.02
		c-27.76,46.77-89.24,62.8-137.33,35.8c-15.85-8.91-28.28-21.39-36.81-35.78c-4.56-7.71-8.01-15.95-10.28-24.51
		c-0.46-1.77-0.88-3.55-1.25-5.34c3.41-7.75,6.54-15.36,9.43-22.77c0.67,1.25,1.37,2.49,2.1,3.73c5.35,9.04,12.24,17.31,20.54,24.43
		c4.93,4.22,10.36,8.04,16.27,11.35c38.38,21.55,85.3,15.69,116.79-11.35c7.96-6.83,14.94-15.01,20.54-24.45
		c0-0.01,0.01-0.01,0.01-0.02c0.95-1.59,1.84-3.2,2.67-4.82C344.68,318.76,347.62,326.76,350.85,334.94z"/>
	<linearGradient id="SVGID_3_" gradientUnits="userSpaceOnUse" x1="253.1652" y1="288.576" x2="249.8365" y2="407.2999">
		<stop  offset="0.1728" style="stop-color:#ED213A"/>
		<stop  offset="1" style="stop-color:#93291E"/>
	</linearGradient>
	<path class="st2" d="M341.98,310.96c-0.83,1.62-1.73,3.23-2.67,4.82c0,0.01-0.01,0.01-0.01,0.02c-5.6,9.44-12.58,17.62-20.54,24.45
		c-31.49,27.04-78.41,32.91-116.79,11.35c-5.91-3.31-11.34-7.13-16.27-11.35c-8.3-7.12-15.19-15.39-20.54-24.43
		c-0.73-1.23-1.43-2.47-2.1-3.73c4.34-11.11,8.14-21.8,11.46-32c3.38,4,7.11,7.76,11.18,11.26c4.93,4.22,10.36,8.04,16.27,11.35
		c15.3,8.59,31.96,12.82,48.45,13.1h0.12c1.17,0.02,2.34,0.01,3.51-0.01h0.09c23.6-0.46,46.63-9,64.62-24.45
		c4.66-4,9-8.47,12.9-13.38C334.61,288.48,338.02,299.5,341.98,310.96z"/>
	<linearGradient id="SVGID_4_" gradientUnits="userSpaceOnUse" x1="254.18" y1="209.5749" x2="251.5921" y2="374.4603">
		<stop  offset="0.1728" style="stop-color:#ED213A"/>
		<stop  offset="1" style="stop-color:#93291E"/>
	</linearGradient>
	<path class="st3" d="M331.66,277.97c-3.9,4.91-8.23,9.38-12.9,13.38c-18,15.45-41.03,23.99-64.62,24.45h-0.09
		c-1.17-0.02-2.34-0.02-3.51,0.01h-0.12c-16.49-0.28-33.15-4.52-48.45-13.1c-5.91-3.32-11.34-7.13-16.27-11.35
		c-4.07-3.49-7.8-7.26-11.18-11.26c4.38-13.39,7.96-25.92,10.9-37.39c2.64-10.31,4.77-19.75,6.49-28.21h125.67
		c1.61,9.78,3.66,20.74,6.32,32.7C326.06,256.83,328.62,267.13,331.66,277.97z"/>
</g>
<path class="st4" d="M371.5,396.93c-2.66,6.88-8.36,12.82-16.29,17.82c-5.45,3.44-11.98,6.45-19.3,9.01h-0.01
	c-45.45,15.9-121.74,14.92-166.83-2.04c-6.68-2.51-12.67-5.37-17.78-8.58c-8.61-5.41-14.71-11.81-17.33-19.17
	c-4.44-12.53,3.17-22.21,17.48-54.16c0.61-1.36,1.21-2.73,1.8-4.08c3.46-7.84,6.64-15.53,9.56-23.03
	c4.4-11.23,8.26-22.04,11.62-32.35c1.05-3.23,1.89-5.9,2.63-8.36c4.22-14.06,6.26-21.89,8.42-29.45c1.93-6.75,4.95-16.54,9.52-28.53
	c40.67,0.67,81.33,1.33,122,2c4.57,13.63,7.27,23.97,8.92,31.07c0.9,3.87,3.11,13.55,6.72,27c0.36,1.34,0.72,2.65,1.14,4.13
	c3,10.62,6.45,21.76,10.47,33.35c2.73,7.89,5.72,15.98,8.99,24.26c0.97,2.47,1.98,4.96,3.01,7.48
	C369.12,374.57,376.3,384.53,371.5,396.93z"/>
<g>
	<path class="st5" d="M200.65,405L200.65,405c4.97,0,9-4.03,9-9V225h-18v171C191.65,400.97,195.68,405,200.65,405z"/>
	<path class="st5" d="M307.65,405L307.65,405c4.97,0,9-4.03,9-9V225h-18v171C298.65,400.97,302.68,405,307.65,405z"/>
</g>
<rect x="238.3" y="174.58" class="st6" width="31.7" height="44.43"/>
<path class="st6" d="M287.36,386h-66.41V231.41c0-15.2,12.32-27.52,27.52-27.52h11.38c15.2,0,27.52,12.32,27.52,27.52V386z"/>
<path class="st7" d="M259.78,186.97h-11.26c-5.76,0-10.44-4.67-10.44-10.44v-6.7h32.14v6.7
	C270.22,182.3,265.55,186.97,259.78,186.97z"/>
<path class="st5" d="M266.83,177.03h-25.7c-17.45,0-31.59-14.14-31.59-31.59V86.02c0-17.45,14.14-31.59,31.59-31.59h25.7
	c17.45,0,31.59,14.14,31.59,31.59v59.42C298.42,162.89,284.28,177.03,266.83,177.03z"/>
<g>
	<path class="st8" d="M241.89,105.77h-21.38c-1.4,0-2.54-1.14-2.54-2.54v-1.05c0-1.4,1.14-2.54,2.54-2.54h21.38
		c1.4,0,2.54,1.14,2.54,2.54v1.05C244.43,104.63,243.29,105.77,241.89,105.77z"/>
	<path class="st8" d="M287.46,105.77h-21.38c-1.4,0-2.54-1.14-2.54-2.54v-1.05c0-1.4,1.14-2.54,2.54-2.54h21.38
		c1.4,0,2.54,1.14,2.54,2.54v1.05C289.99,104.63,288.86,105.77,287.46,105.77z"/>
</g>
<g>
	<path class="st9" d="M241.48,104.24h-22.51c-1.4,0-2.54-1.14-2.54-2.54v-1.05c0-1.4,1.14-2.54,2.54-2.54h22.51
		c1.4,0,2.54,1.14,2.54,2.54v1.05C244.02,103.1,242.88,104.24,241.48,104.24z"/>
	<path class="st9" d="M288.99,104.24h-22.51c-1.4,0-2.54-1.14-2.54-2.54v-1.05c0-1.4,1.14-2.54,2.54-2.54h22.51
		c1.4,0,2.54,1.14,2.54,2.54v1.05C291.53,103.1,290.39,104.24,288.99,104.24z"/>
</g>
<rect x="209.54" y="91.98" class="st8" width="88.89" height="1.53"/>
<path class="st9" d="M303.85,91.98h-99.73V69.97c0-9.85,7.98-17.83,17.83-17.83h64.06c9.85,0,17.83,7.98,17.83,17.83V91.98z"/>
<g>
	<path d="M239.74,121.1h-0.79c-1.05,0-1.9-0.85-1.9-1.9v-8.45c0-1.05,0.85-1.9,1.9-1.9h0.79c1.05,0,1.9,0.85,1.9,1.9v8.45
		C241.64,120.24,240.79,121.1,239.74,121.1z"/>
	<path d="M269.01,121.1h-0.79c-1.05,0-1.9-0.85-1.9-1.9v-8.45c0-1.05,0.85-1.9,1.9-1.9h0.79c1.05,0,1.9,0.85,1.9,1.9v8.45
		C270.92,120.24,270.06,121.1,269.01,121.1z"/>
</g>
<path class="st6" d="M254.77,134.89h-1.58c-2.1,0-3.81-1.71-3.81-3.81v-10.77c0-2.1,1.71-3.81,3.81-3.81h1.58
	c2.1,0,3.81,1.71,3.81,3.81v10.77C258.58,133.18,256.87,134.89,254.77,134.89z"/>
<path class="st6" d="M262.29,168.02h-16.63c-7.73,0-14-6.27-14-14V140.4c0-0.48,0.39-0.87,0.87-0.87h42.9
	c0.48,0,0.87,0.39,0.87,0.87v13.62C276.29,161.75,270.03,168.02,262.29,168.02z"/>
<path class="st10" d="M264.4,165.17h-20.83c-5.52,0-10-4.48-10-10v-12.96c0-0.43,0.35-0.78,0.78-0.78h39.28
	c0.43,0,0.78,0.35,0.78,0.78v12.96C274.4,160.69,269.92,165.17,264.4,165.17z"/>
<g>
	<ellipse class="st11" cx="253.98" cy="154.73" rx="7.6" ry="5.7"/>
</g>
<path class="st12" d="M263,165.17h-18.04v-3.92c0-4.13,3.35-7.47,7.47-7.47h3.09c4.13,0,7.47,3.35,7.47,7.47V165.17z"/>
<path class="st13" d="M265.82,165.17h-23.68c-0.02,0-0.03-0.01-0.03-0.03v-4.94c0-1.1,0.9-2,2-2h19.74c1.1,0,2,0.9,2,2v4.94
	C265.85,165.16,265.84,165.17,265.82,165.17z"/>
<path class="st13" d="M258.64,145.16h-9.32c-1.62,0-2.94-1.31-2.94-2.94v-0.64c0-0.09,0.07-0.16,0.16-0.16h14.88
	c0.09,0,0.16,0.07,0.16,0.16v0.64C261.58,143.85,260.26,145.16,258.64,145.16z"/>
<path class="st5" d="M211.64,112.63v7.01c0,1.24-1.01,2.25-2.25,2.25h-4.49c-2.63,0-4.77-2.14-4.77-4.77v-1.97
	c0-2.63,2.14-4.77,4.77-4.77h4.49C210.63,110.38,211.64,111.38,211.64,112.63z"/>
<path class="st5" d="M296.67,112.63v7.01c0,1.24,1.01,2.25,2.25,2.25h4.49c2.63,0,4.77-2.14,4.77-4.77v-1.97
	c0-2.63-2.14-4.77-4.77-4.77h-4.49C297.67,110.38,296.67,111.38,296.67,112.63z"/>
<g>
	<path class="st8" d="M203.95,118.07l-0.17-0.17c-0.23-0.23-0.23-0.61,0-0.84l2.86-2.86c0.23-0.23,0.61-0.23,0.84,0l0.17,0.17
		c0.23,0.23,0.23,0.61,0,0.84l-2.86,2.86C204.56,118.3,204.19,118.3,203.95,118.07z"/>
	<path class="st8" d="M207.65,117.9l-0.17,0.17c-0.23,0.23-0.61,0.23-0.84,0l-2.86-2.86c-0.23-0.23-0.23-0.61,0-0.84l0.17-0.17
		c0.23-0.23,0.61-0.23,0.84,0l2.86,2.86C207.89,117.29,207.89,117.67,207.65,117.9z"/>
</g>
<g>
	<path class="st8" d="M300.66,118.07l-0.17-0.17c-0.23-0.23-0.23-0.61,0-0.84l2.86-2.86c0.23-0.23,0.61-0.23,0.84,0l0.17,0.17
		c0.23,0.23,0.23,0.61,0,0.84l-2.86,2.86C301.26,118.3,300.89,118.3,300.66,118.07z"/>
	<path class="st8" d="M304.36,117.9l-0.17,0.17c-0.23,0.23-0.61,0.23-0.84,0l-2.86-2.86c-0.23-0.23-0.23-0.61,0-0.84l0.17-0.17
		c0.23-0.23,0.61-0.23,0.84,0l2.86,2.86C304.59,117.29,304.59,117.67,304.36,117.9z"/>
</g>
<path class="st6" d="M304.86,239.25H203.44c-6.62,0-11.98-5.37-11.98-11.98v-4.96c0-6.62,5.37-11.98,11.98-11.98h101.43
	c6.62,0,11.98,5.37,11.98,11.98v4.96C316.85,233.88,311.48,239.25,304.86,239.25z"/>
<path class="st5" d="M289.65,248.16h-71c-6.35,0-11.5-5.15-11.5-11.5v-4.33c0-6.35,5.15-11.5,11.5-11.5h71
	c6.35,0,11.5,5.15,11.5,11.5v4.33C301.15,243.01,296,248.16,289.65,248.16z"/>
<rect x="191.64" y="226" class="st14" width="18" height="102"/>
<path class="st5" d="M274.65,386h-41v-91.5c0-11.32,9.18-20.5,20.5-20.5h0c11.32,0,20.5,9.18,20.5,20.5V386z"/>
<path class="st15" d="M306.35,240H201.67c-5.54,0-10.03-4.66-10.03-10.4c0-6.53,0-13.07,0-19.6c1.37,0,2.75,0,4.12,0
	c10.27,0,20.54,0,30.81,0c2.82,1.34,6.57,2.87,11.12,4.07c4.73,1.25,10.4,2.18,16.83,2.13c12.31-0.1,21.77-3.75,26.95-6.21
	c11.52,0.33,23.03,0.67,34.55,1c0.59,1.23,4.44,9.61,0.38,18.6C313.45,236.11,308.1,239.11,306.35,240z"/>
<path class="st16" d="M221.64,207"/>
<path class="st15" d="M287.64,400.03c-4.57,3.27-17.28,11.42-35,10.95c-15.95-0.43-27.35-7.61-32-10.95
	c-3.46-50.95-6.92-101.89-10.38-152.84c-0.21-0.88-0.42-1.75-0.62-2.63c0-2.19,0-4.38,0-6.57c30.33,0,60.67,0,91,0
	C296.3,292.01,291.97,346.02,287.64,400.03z"/>
<path class="st16" d="M322.64,238"/>
<rect x="298.64" y="226" class="st14" width="18" height="102"/>
<path d="M295.64,315c-13.81,0-27.62,0-41.43,0c-13.52,0-27.05,0-40.57,0c-0.33-3.67-0.67-7.33-1-11c28,0,56,0,84,0
	C296.3,307.67,295.97,311.33,295.64,315z"/>
<path class="st17" d="M204.15,217c-3.04,6.07,18.15,25.13,41.32,37c12.29,6.29,50.99,25.96,67.73,10.09
	c12.16-11.52,11.28-38.38,0-47.09c-6.05-4.67-10.95,0-42.5,0c-5.78,0-14.88,0.56-33.2,0C211.76,216.21,205.62,214.06,204.15,217z"/>
<path d="M268.64,338"/>
<path class="st18" d="M209.64,374h-18c-1-15.33-2-30.67-3-46c8,0,16,0,24,0C211.64,343.33,210.64,358.67,209.64,374z"/>
<path class="st18" d="M316.64,374h-18c-1-15.33-2-30.67-3-46c8,0,16,0,24,0C318.64,343.33,317.64,358.67,316.64,374z"/>
<g>
	
		<linearGradient id="SVGID_5_" gradientUnits="userSpaceOnUse" x1="204.9413" y1="225.5748" x2="235.5126" y2="225.5748" gradientTransform="matrix(0.9991 0.0428 -0.0428 0.9991 10.3095 -11.0799)">
		<stop  offset="0" style="stop-color:#ED213A"/>
		<stop  offset="1" style="stop-color:#93291E"/>
	</linearGradient>
	<path class="st19" d="M235.25,240.44c-0.63-0.43-1.25-0.86-1.88-1.3c-10.25-7.22-18.97-15.15-23.67-21.34
		c-3.09-4.07-4.45-7.38-3.4-9.27c0.31-0.57,0.81-0.93,1.59-1.12c2.37-0.61,7.42,0.27,18.41,1.38c-0.54,2.13-0.87,4.36-0.97,6.64
		c-0.39,9.18,3,17.64,8.79,23.89C234.5,239.69,234.87,240.07,235.25,240.44z"/>
	
		<linearGradient id="SVGID_6_" gradientUnits="userSpaceOnUse" x1="224.5426" y1="231.2081" x2="254.8426" y2="231.2081" gradientTransform="matrix(0.9991 0.0428 -0.0428 0.9991 10.3095 -11.0799)">
		<stop  offset="0" style="stop-color:#ED213A"/>
		<stop  offset="1" style="stop-color:#93291E"/>
	</linearGradient>
	<path class="st20" d="M254.12,251.63c-2.55-1.34-4.78-2.59-6.59-3.6c-0.48-0.28-0.93-0.53-1.35-0.77
		c-3.73-2.11-7.41-4.42-10.93-6.82c-0.38-0.37-0.75-0.74-1.11-1.13c-5.8-6.24-9.19-14.71-8.79-23.89c0.1-2.29,0.42-4.52,0.97-6.64
		c3.75,0.38,8.19,0.79,13.46,1.18c2.58,0.19,4.98,0.35,7.22,0.49c-2.49,4.4-4,9.42-4.23,14.81c-0.22,5.13,0.74,10.03,2.63,14.45
		c1.51,3.49,3.61,6.68,6.16,9.44c0,0,0,0,0.01,0C252.37,250.02,253.22,250.85,254.12,251.63z"/>
	
		<linearGradient id="SVGID_7_" gradientUnits="userSpaceOnUse" x1="242.3626" y1="234.6332" x2="270.7826" y2="234.6332" gradientTransform="matrix(0.9991 0.0428 -0.0428 0.9991 10.3095 -11.0799)">
		<stop  offset="0" style="stop-color:#ED213A"/>
		<stop  offset="1" style="stop-color:#93291E"/>
	</linearGradient>
	<path class="st21" d="M260.26,233.73c-0.04,0.45-0.07,0.9-0.09,1.36c-0.22,5.13,0.74,10.03,2.64,14.45
		c1.42,3.29,3.36,6.32,5.72,8.95c-5.33-2.23-10.29-4.69-14.41-6.86l-0.01,0c-0.9-0.78-1.75-1.61-2.56-2.48c-0.01,0-0.01,0-0.01,0
		c-2.55-2.76-4.65-5.95-6.16-9.44c-1.89-4.42-2.85-9.32-2.63-14.45c0.23-5.4,1.74-10.42,4.23-14.81
		c12.53,0.75,19.85,0.73,24.81,0.89C265.35,216.81,261.01,224.72,260.26,233.73z"/>
	
		<linearGradient id="SVGID_8_" gradientUnits="userSpaceOnUse" x1="260.1826" y1="234.1682" x2="308.3626" y2="234.1682" gradientTransform="matrix(0.9991 0.0428 -0.0428 0.9991 10.3095 -11.0799)">
		<stop  offset="0" style="stop-color:#ED213A"/>
		<stop  offset="1" style="stop-color:#93291E"/>
	</linearGradient>
	<path class="st22" d="M308.7,228.08c-0.78,18.21-16.17,32.34-34.38,31.56c-1.35-0.06-2.67-0.19-3.98-0.41c0,0,0,0-0.01,0
		c-0.6-0.25-1.2-0.49-1.79-0.74c-2.36-2.63-4.3-5.66-5.72-8.95c-1.9-4.42-2.86-9.32-2.64-14.45c0.02-0.46,0.05-0.91,0.09-1.36
		c0.75-9.02,5.09-16.93,11.54-22.4c0.44,0.01,0.86,0.03,1.27,0.04l0.53,0.02c6.97,0.29,12.64,0.29,17.3,0.17
		c6.11-0.14,10.5-0.49,13.84-0.66C307.51,216,308.97,221.87,308.7,228.08z"/>
	
		<linearGradient id="SVGID_9_" gradientUnits="userSpaceOnUse" x1="271.3727" y1="236.5297" x2="323.5532" y2="236.5297" gradientTransform="matrix(0.9991 0.0428 -0.0428 0.9991 10.3095 -11.0799)">
		<stop  offset="0" style="stop-color:#ED213A"/>
		<stop  offset="1" style="stop-color:#93291E"/>
	</linearGradient>
	<path class="st23" d="M313.68,260.26c-10.44,9.04-28.17,5.08-43.35-1.03c1.3,0.22,2.63,0.35,3.98,0.41
		c18.21,0.78,33.6-13.34,34.38-31.56c0.27-6.21-1.19-12.08-3.96-17.17c5.5-0.27,8.14-0.07,10.96,2.29
		C326.65,222.4,326.38,249.27,313.68,260.26z"/>
</g>
<path class="st24" d="M204.14,206.85c-3.36,5.5,16.81,26.18,41.61,39.77c14.46,7.92,49.08,26.89,67.16,12.55
	c13.83-10.98,14.36-38.59,3.97-46.24c-3.64-2.69-10.68-2.79-24.76-3c-7.06-0.1-8.87,0.36-18.92,0.16c-4.52-0.09-8.37-0.29-15.9-0.68
	c-5.23-0.27-11.03-0.57-18.67-1.07C208.31,206.35,205.29,204.96,204.14,206.85z"/>
<circle class="st25" cx="205.14" cy="212.5" r="7.5"/>
<path class="st25" d="M254.52,296.75c-6.89,0-12.48,5.59-12.48,12.48s5.59,12.48,12.48,12.48S267,316.13,267,309.23
	S261.41,296.75,254.52,296.75z M254.52,318.15c-4.89,0-8.92-4.02-8.92-8.92s4.02-8.92,8.92-8.92s8.92,4.02,8.92,8.92
	S259.41,318.15,254.52,318.15z"/>
<path class="st26" d="M307,72c0.63,4.37,0.45,8.29,0,11.5H200c-0.45-3.21-0.63-7.13,0-11.5c2-13.93,10.81-22.94,14.52-26.32
	l4.84,8.77l4.84,8.78l4.83-8.77l4.84-8.78l4.84,8.77l4.84,8.78l4.84-8.78l4.84-8.77l4.84,8.77l4.84,8.77l4.84-8.77l4.83-8.77
	l4.98,9.02l4.97,9.02l4.98-9.02l4.97-9.02C296.19,49.06,305,58.07,307,72z"/>
<path class="st27" d="M297,57c1.33,1.55,2.77,3.54,4,6c3.47,6.91,3.34,13.54,3,17"/>
<circle class="st28" cx="295" cy="55" r="1"/>
<path class="st29" d="M212.5,330h-24c-0.83,0-1.5-0.67-1.5-1.5l0,0c0-0.83,0.67-1.5,1.5-1.5h24c0.83,0,1.5,0.67,1.5,1.5l0,0
	C214,329.33,213.33,330,212.5,330z"/>
<path class="st29" d="M319.5,330h-24c-0.83,0-1.5-0.67-1.5-1.5l0,0c0-0.83,0.67-1.5,1.5-1.5h24c0.83,0,1.5,0.67,1.5,1.5l0,0
	C321,329.33,320.33,330,319.5,330z"/>
<path class="st29" d="M210.5,376h-20c-0.83,0-1.5-0.67-1.5-1.5l0,0c0-0.83,0.67-1.5,1.5-1.5h20c0.83,0,1.5,0.67,1.5,1.5l0,0
	C212,375.33,211.33,376,210.5,376z"/>
<path class="st29" d="M317.5,376h-20c-0.83,0-1.5-0.67-1.5-1.5l0,0c0-0.83,0.67-1.5,1.5-1.5h20c0.83,0,1.5,0.67,1.5,1.5l0,0
	C319,375.33,318.33,376,317.5,376z"/>
<path class="st30" d="M215.44,144.5L215.44,144.5c-0.5,0-0.91-0.41-0.91-0.91v-28.19c0-0.5,0.41-0.91,0.91-0.91l0,0
	c0.5,0,0.91,0.41,0.91,0.91v28.19C216.34,144.09,215.94,144.5,215.44,144.5z"/>
<circle class="st30" cx="215.44" cy="112" r="1.25"/>
<path class="st31" d="M225.64,378.94L225.64,378.94c-1.1,0.08-2.06-0.75-2.13-1.86l-2.44-34.95c-0.08-1.1,0.75-2.06,1.86-2.13l0,0
	c1.1-0.08,2.06,0.75,2.13,1.86l2.44,34.95C227.57,377.91,226.74,378.87,225.64,378.94z"/>
<path class="st32" d="M312.5,291L312.5,291c0.83,0,1.5-0.67,1.5-1.5v-23c0-0.83-0.67-1.5-1.5-1.5l0,0c-0.83,0-1.5,0.67-1.5,1.5v23
	C311,290.33,311.67,291,312.5,291z"/>
<path class="st32" d="M195.5,325L195.5,325c0.83,0,1.5-0.67,1.5-1.5v-23c0-0.83-0.67-1.5-1.5-1.5l0,0c-0.83,0-1.5,0.67-1.5,1.5v23
	C194,324.33,194.67,325,195.5,325z"/>
<path class="st5" d="M255.19,132.89h-2.38c-2.1,0-3.81-1.71-3.81-3.81v-10.77c0-2.1,1.71-3.81,3.81-3.81h2.38
	c2.1,0,3.81,1.71,3.81,3.81v10.77C259,131.18,257.29,132.89,255.19,132.89z"/>
<path class="st33" d="M235,101h-12c-0.55,0-1-0.45-1-1l0,0c0-0.55,0.45-1,1-1h12c0.55,0,1,0.45,1,1l0,0
	C236,100.55,235.55,101,235,101z"/>
<path class="st33" d="M287,101h-12c-0.55,0-1-0.45-1-1l0,0c0-0.55,0.45-1,1-1h12c0.55,0,1,0.45,1,1l0,0
	C288,100.55,287.55,101,287,101z"/>
</svg>
